<svg viewBox="0 0 26 31" fill="none" xmlns="http://www.w3.org/2000/svg"><path d="M24.14 7.333h-3.57c-.466-3.953-3.837-7.03-7.914-7.03S5.208 3.38 4.743 7.332H1.172A1.174 1.174 0 000 8.505V29.13c0 .648.525 1.172 1.172 1.172H24.14c.647 0 1.172-.524 1.172-1.172V8.505c0-.647-.525-1.172-1.172-1.172zM12.657 2.646a5.634 5.634 0 015.547 4.688H7.11a5.634 5.634 0 015.546-4.688zM22.97 27.959H2.344V9.677h2.344v3.516a1.172 1.172 0 002.343 0V9.677h11.25v3.516a1.172 1.172 0 002.344 0V9.677h2.344V27.96z" fill="#fff"/></svg>