<svg width="28" height="28" fill="none" xmlns="http://www.w3.org/2000/svg"><path d="M27.25 5.959a.876.876 0 00-.543-.81L14.334.066a.876.876 0 00-.666 0L1.295 5.149a.876.876 0 00-.543.81V22.04c0 .355.214.675.543.81l12.373 5.083a.873.873 0 00.665 0c.01-.003-.458.189 12.374-5.083a.876.876 0 00.543-.81V5.96zM14 10.169L9.443 8.295l9.852-4.298 4.864 1.998-10.157 4.172zM2.505 7.338l3.933 1.616v4.559a.876.876 0 001.752 0V9.675l4.936 2.028v14.114L2.504 21.454V7.339zm11.497-5.516l3.037 1.248-9.853 4.297-3.341-1.372L14 1.823zm.876 9.88l10.62-4.364v14.115l-10.62 4.363V11.703z" fill="#949DAA"/></svg>