<svg width="60" height="62" fill="none" xmlns="http://www.w3.org/2000/svg"><path d="M58.545 13.68L30.395.09a.908.908 0 00-.79 0L1.455 13.68a.908.908 0 00-.514.818v33.004c0 .348.2.666.514.818l28.15 13.59a.909.909 0 00.79 0l28.15-13.59a.908.908 0 00.514-.818V14.498c0-.349-.2-.666-.514-.818zM30 1.917l26.062 12.581-7.555 3.647a.903.903 0 00-.154-.097L22.469 5.553 30 1.917zm-9.582 4.662L46.44 19.142l-5.33 2.574L15.098 9.158l5.32-2.579zM47.05 20.865v9.512l-4.98 2.403v-9.51l4.979-2.404zm10.192 26.067L30.908 59.645V28.658l6.282-3.033a.908.908 0 10-.79-1.635L30 27.08l-2.518-1.216a.908.908 0 10-.79 1.635l2.4 1.159v30.987L2.758 46.932V15.945l20.053 9.68a.908.908 0 00.79-1.636L3.939 14.5l9.022-4.355 27.281 13.17.013.016v10.898a.908.908 0 001.303.818l6.795-3.28a.908.908 0 00.513-.818v-10.96l8.376-4.044v30.987z" fill="#465568"/></svg>