<svg width="20" height="16" fill="none" xmlns="http://www.w3.org/2000/svg"><path d="M19.567 5.037H18.1a.433.433 0 00-.3.12l-.313.3c-.528-1.22-1.285-2.428-2.307-3.679A2.888 2.888 0 0012.936.715H7.064a2.89 2.89 0 00-2.243 1.063c-1.055 1.29-1.797 2.469-2.313 3.675L2.2 5.158a.433.433 0 00-.3-.12H.433A.433.433 0 000 5.47v1.003c0 .229.178.418.406.433L1.914 7c-.228.666-.406 1.658-.406 3.057 0 1.214.242 2.011.664 2.528v2.337c0 .2.163.362.363.362h1.669c.2 0 .363-.162.363-.362V13.47h10.866v1.45c0 .201.163.363.363.363h1.669c.2 0 .363-.162.363-.362v-2.337c.422-.517.664-1.314.664-2.528 0-1.399-.178-2.39-.406-3.057l1.508-.094A.433.433 0 0020 6.473V5.47a.433.433 0 00-.433-.433zM6.059 2.791a1.294 1.294 0 011.005-.476h5.872c.391 0 .758.174 1.005.476.716.875 1.28 1.712 1.717 2.546l-11.326.002c.427-.815.995-1.653 1.727-2.548zm-1.235 8.905c-.83 0-1.503-.271-1.503-.93 0-.658.244-1.191 1.074-1.191.831 0 1.933.534 1.933 1.192 0 .658-.673.93-1.504.93zm6.752-.137H8.424a.863.863 0 01-.862-.862c0-.133.108-.241.241-.241h4.394c.133 0 .241.108.241.241a.863.863 0 01-.862.862zm3.6.137c-.831 0-1.504-.271-1.504-.93 0-.658 1.102-1.191 1.933-1.191.83 0 1.075.534 1.075 1.192 0 .658-.674.93-1.504.93z" fill="url(#paint0_linear)"/><defs><linearGradient id="paint0_linear" x1="10" y1=".715" x2="10" y2="15.284" gradientUnits="userSpaceOnUse"><stop stop-color="#465568"/><stop offset="1" stop-color="#465568"/></linearGradient></defs></svg>