<svg viewBox="0 0 26 28" fill="none" xmlns="http://www.w3.org/2000/svg"><path d="M24.922 16.053l-.996-1.827-.587-1.996a.884.884 0 00-.6-.6l-1.996-.586-1.366-.745V.884A.884.884 0 0018.493 0H1.855a.884.884 0 00-.884.884v23.248c0 .489.396.884.884.884h12.448v2.099a.885.885 0 001.364.742l2.826-1.825C21.62 28.052 21.45 28 21.8 28a.884.884 0 00.884-.884c0-6.222-.031-5.767.057-5.793a.884.884 0 00.599-.599l.587-1.996.996-1.827a.884.884 0 000-.847zM2.74 23.248V1.768h14.87v8.53l-1.366.746-1.997.587a.884.884 0 00-.598.599l-.588 1.996-.996 1.827a.884.884 0 000 .847l.996 1.827.588 1.996c.087.298.3.511.655.616v1.909H2.74zm18.175 2.243c-2.105-1.36-2.073-1.396-2.42-1.396-.349 0-.31.032-2.422 1.396v-3.632l.17.05c1.915 1.044 1.944 1.105 2.251 1.105.3 0 .257-.017 2.25-1.105l.171-.05v3.632zm1.414-7.528c-.065.119-.04.064-.55 1.798-1.742.513-1.681.486-1.798.55l-1.487.81-1.486-.81c-.119-.065-.061-.039-1.799-.55-.514-1.75-.487-1.683-.55-1.798l-.81-1.487.81-1.486c.065-.119.04-.065.55-1.799 1.742-.512 1.681-.485 1.799-.55l1.486-.81 1.487.81c.118.066.064.04 1.798.55.512 1.742.486 1.682.55 1.799l.81 1.486-.81 1.487z" fill="#949DAA"/><path d="M18.682 18.326a1.87 1.87 0 10-.37-3.722 1.87 1.87 0 00.37 3.722zm-3.45-12.2a.884.884 0 00-.884-.885H6A.884.884 0 106 7.01h8.348a.884.884 0 00.884-.884zm-2.627 3.14a.884.884 0 00-.885-.884H8.627a.884.884 0 100 1.768h3.093a.884.884 0 00.885-.884z" fill="#949DAA"/></svg>