<svg width="62" height="62" fill="none" xmlns="http://www.w3.org/2000/svg"><g clip-path="url(#clip0)" fill="#465568"><path d="M55.569 10.653H6.43a2.196 2.196 0 00-2.193 2.192v17.123a.917.917 0 001.834 0V12.845a.36.36 0 01.36-.359h49.137c.193 0 .356.165.356.36v36.308a.363.363 0 01-.356.36H6.43a.364.364 0 01-.36-.36V34.416a.917.917 0 10-1.833 0v14.739c0 1.209.984 2.192 2.193 2.192h49.14c1.207 0 2.19-.983 2.19-2.193V12.846a2.194 2.194 0 00-2.19-2.192z"/><path d="M11.864 36.166h25.123a.917.917 0 100-1.834H11.864a.917.917 0 100 1.834zm0-6.842h25.123a.917.917 0 100-1.833H11.864a.917.917 0 100 1.833zm0 13.686h25.123a.917.917 0 000-1.833H11.864a.917.917 0 100 1.834zm37.603-26.658H13.96a3.015 3.015 0 00-3.013 3.01v.205a3.014 3.014 0 003.013 3.009h15.432a.917.917 0 100-1.834H13.96a1.18 1.18 0 01-1.18-1.175v-.206c0-.648.53-1.175 1.18-1.175h35.507c.65 0 1.18.527 1.18 1.175v.206a1.18 1.18 0 01-1.18 1.175H33.582a.917.917 0 000 1.834h15.885a3.014 3.014 0 003.014-3.009v-.206a3.015 3.015 0 00-3.014-3.009zm2.885 19.456c-.338-.572-.945-.795-1.705-1.028l-.414-.127V28.8a2.21 2.21 0 00-2.207-2.207h-2.814c-1.215 0-2.203.99-2.203 2.207v5.931l-.428.113c-.713.19-1.382.41-1.727 1.02-.326.579-.216 1.216-.039 1.99l.353 1.526-.304 1.115c-.191.714-.334 1.403.023 2.006.338.573.972.804 1.702 1.026l1.5.46.816.818c.516.52 1.037.986 1.732.986h.017c.664-.008 1.16-.421 1.74-.961l1.146-1.068 1.116-.297c.715-.19 1.385-.41 1.73-1.023.324-.577.214-1.214.037-1.986l-.35-1.526.3-1.115c.194-.712.338-1.401-.02-2.006zm-7.14-7.382h2.814c.202 0 .373.17.373.373v4.77l-.064-.065c-.517-.519-1.04-.984-1.732-.984h-.017c-.662.007-1.16.42-1.742.96l-.002.003V28.8c0-.203.17-.373.37-.373zm4.973 13.265l-1.338.357a.918.918 0 00-.39.215l-1.313 1.224c-.258.24-.41.365-.5.428a4.617 4.617 0 01-.44-.405l-.977-.98a.92.92 0 00-.38-.23l-1.723-.528a5.22 5.22 0 01-.619-.217 4.62 4.62 0 01.129-.582l.364-1.334c.04-.146.043-.3.008-.447l-.404-1.751a5.234 5.234 0 01-.12-.647c.091-.04.26-.097.569-.179l1.089-.287c.02-.006.042-.01.062-.017l.187-.05a.914.914 0 00.391-.215l1.313-1.223c.26-.24.413-.366.503-.43.08.06.214.178.44.404l.974.981a.92.92 0 00.384.23l1.718.525c.337.103.522.173.621.22a4.643 4.643 0 01-.13.582l-.36 1.338a.912.912 0 00-.009.443l.402 1.75c.079.343.11.537.12.646a4.657 4.657 0 01-.57.18z"/><path d="M57.017 6.418H4.983A4.987 4.987 0 000 11.398v39.204a4.987 4.987 0 004.983 4.98h52.034A4.987 4.987 0 0062 50.602V11.398a4.987 4.987 0 00-4.983-4.98zm3.15 44.184a3.152 3.152 0 01-3.15 3.147H4.983a3.152 3.152 0 01-3.15-3.147V11.398a3.152 3.152 0 013.15-3.147h52.034a3.152 3.152 0 013.15 3.147v39.204z"/></g><defs><clipPath id="clip0"><path fill="#fff" d="M0 0h62v62H0z"/></clipPath></defs></svg>