<svg viewBox="0 0 62 50" fill="none" xmlns="http://www.w3.org/2000/svg"><path d="M55.57 4.653H6.431c-1.21 0-2.194.984-2.194 2.192v17.123a.917.917 0 001.834 0V6.845a.36.36 0 01.36-.359h49.137c.193 0 .356.165.356.36v36.309a.362.362 0 01-.356.358H6.432a.364.364 0 01-.36-.358v-14.74a.917.917 0 10-1.834 0v14.74c0 1.209.985 2.192 2.194 2.192h49.137c1.207 0 2.19-.983 2.19-2.193V6.846a2.194 2.194 0 00-2.19-2.192z" fill="#465568"/><path d="M11.864 30.166h25.122a.917.917 0 100-1.834H11.864a.917.917 0 100 1.834zm0-6.842h25.122a.917.917 0 100-1.833H11.864a.917.917 0 100 1.833zm0 13.686h25.122a.917.917 0 000-1.833H11.864a.917.917 0 100 1.834zm37.603-26.658H13.96a3.015 3.015 0 00-3.014 3.01v.205a3.014 3.014 0 003.014 3.009h15.432a.917.917 0 100-1.834H13.96a1.18 1.18 0 01-1.18-1.175v-.206c0-.648.529-1.175 1.18-1.175h35.507c.65 0 1.18.527 1.18 1.175v.206a1.18 1.18 0 01-1.18 1.175H33.582a.917.917 0 000 1.834h15.885a3.014 3.014 0 003.014-3.009v-.206a3.015 3.015 0 00-3.014-3.009zm2.885 19.456c-.338-.572-.946-.795-1.705-1.028l-.414-.127V22.8a2.21 2.21 0 00-2.207-2.207h-2.814c-1.216 0-2.204.99-2.204 2.207v5.931l-.427.113c-.713.19-1.382.41-1.727 1.02-.327.579-.216 1.216-.04 1.99l.354 1.526-.304 1.115c-.191.714-.334 1.403.022 2.006.338.573.972.804 1.703 1.026l1.5.46.816.818c.516.52 1.037.986 1.731.986h.018c.664-.008 1.16-.421 1.74-.961l1.146-1.068 1.116-.297c.714-.19 1.385-.41 1.73-1.023.324-.577.214-1.214.037-1.986l-.35-1.526.3-1.115c.193-.712.338-1.401-.021-2.006zm-7.14-7.382h2.814c.202 0 .373.17.373.373v4.77l-.064-.065c-.517-.519-1.04-.984-1.733-.984h-.017c-.661.007-1.159.42-1.74.96l-.003.003V22.8c0-.203.17-.373.37-.373zm4.973 13.265l-1.339.357a.919.919 0 00-.388.215l-1.314 1.224c-.258.24-.41.365-.5.428a4.591 4.591 0 01-.44-.405l-.978-.98a.92.92 0 00-.38-.23l-1.722-.528a5.233 5.233 0 01-.619-.217c.012-.099.046-.274.129-.582l.363-1.334c.04-.146.044-.3.009-.447l-.404-1.751a5.206 5.206 0 01-.12-.647c.091-.04.26-.097.568-.179l1.09-.287c.02-.006.041-.01.061-.017l.188-.05a.914.914 0 00.39-.215l1.314-1.223c.26-.24.413-.366.503-.43.08.06.214.178.44.404l.974.981a.92.92 0 00.383.23l1.718.525c.338.103.522.173.622.22a4.643 4.643 0 01-.13.582l-.36 1.338a.913.913 0 00-.009.443l.402 1.75c.079.343.11.537.12.646a4.651 4.651 0 01-.571.18z" fill="#465568"/><path d="M57.017.418H4.983A4.987 4.987 0 000 5.398v39.204a4.987 4.987 0 004.983 4.98h52.034A4.987 4.987 0 0062 44.602V5.398a4.987 4.987 0 00-4.983-4.98zm3.15 44.184a3.152 3.152 0 01-3.15 3.147H4.983a3.152 3.152 0 01-3.15-3.147V5.398a3.152 3.152 0 013.15-3.147h52.034a3.152 3.152 0 013.15 3.147v39.204z" fill="#465568"/></svg>