<svg viewBox="0 0 28 28" fill="none" xmlns="http://www.w3.org/2000/svg"><path d="M27.097 0H9.867a.883.883 0 00-.883.883v6.993H.904a.883.883 0 00-.883.883v14.526A4.72 4.72 0 004.737 28h18.528a4.72 4.72 0 004.715-4.715V.883A.884.884 0 0027.097 0zM1.788 23.285V9.643h7.196v13.642a2.952 2.952 0 01-2.949 2.948H4.737a2.952 2.952 0 01-2.949-2.948zm24.425 0a2.952 2.952 0 01-2.948 2.948H9.712a4.693 4.693 0 001.039-2.948V1.767h15.462v21.518z" fill="#949DAA"/><path d="M14.73 9.822h8.442a.883.883 0 000-1.767H14.73a.883.883 0 000 1.767zm0 5.088h8.442a.883.883 0 100-1.766H14.73a.884.884 0 000 1.767zm0 5.09h8.442a.883.883 0 100-1.767H14.73a.883.883 0 000 1.767z" fill="#949DAA"/></svg>