<svg viewBox="0 0 16 16" fill="none" xmlns="http://www.w3.org/2000/svg"><path d="M8.012 3.25a2.703 2.703 0 00-2.7 2.7c0 1.489 1.211 2.7 2.7 2.7 1.49 0 2.7-1.211 2.7-2.7 0-1.49-1.21-2.7-2.7-2.7z" fill="url(#paint0_linear)"/><path d="M8.036 0h-.025a5.956 5.956 0 00-5.949 5.95c0 1.798.92 3.201 1.944 4.598L8.003 16l4.015-5.452c1.024-1.397 1.944-2.8 1.944-4.598A5.956 5.956 0 008.036 0zm-.024 9.587A3.642 3.642 0 014.374 5.95a3.642 3.642 0 013.638-3.638A3.642 3.642 0 0111.65 5.95a3.642 3.642 0 01-3.638 3.637z" fill="url(#paint1_linear)"/><defs><linearGradient id="paint0_linear" x1="8.012" y1="3.249" x2="8.012" y2="8.65" gradientUnits="userSpaceOnUse"><stop stop-color="#465568"/><stop offset="1" stop-color="#465568"/></linearGradient><linearGradient id="paint1_linear" x1="8.012" y1="0" x2="8.012" y2="16" gradientUnits="userSpaceOnUse"><stop stop-color="#465568"/><stop offset="1" stop-color="#465568"/></linearGradient></defs></svg>