<svg viewBox="0 0 16 20" fill="none" xmlns="http://www.w3.org/2000/svg"><path d="M15.79 18.73l-2.932-5.338c.832-.132 1.444-.876 1.444-1.707V3.807A3.81 3.81 0 0010.495 0h-4.99a3.857 3.857 0 00-3.85 3.851v7.834c0 .875.612 1.575 1.444 1.707L.21 18.73c-.219.438-.087.963.35 1.181.132.088.263.088.394.088.307 0 .613-.175.744-.438l.263-.437H14.04l.262.437a.812.812 0 00.744.438c.131 0 .263-.044.394-.087.438-.22.569-.744.35-1.182zm-4.114-3.938H4.324l.744-1.357h5.864l.744 1.357zm-.13-2.932a1.27 1.27 0 010-2.538c.7 0 1.268.569 1.268 1.269 0 .656-.569 1.269-1.269 1.269zm-8.36-7.527c0-1.357 1.094-2.451 2.407-2.451h4.77c1.313 0 2.451 1.094 2.451 2.45v2.101c0 .482-.394.832-.875.832H4.06a.83.83 0 01-.831-.832l-.044-2.1zm1.27 4.945a1.27 1.27 0 010 2.538 1.27 1.27 0 010-2.538zM2.66 17.812l.963-1.707h8.753l.962 1.707H2.661z" fill="url(#paint0_linear)"/><defs><linearGradient id="paint0_linear" x1="8" y1="0" x2="8" y2="20" gradientUnits="userSpaceOnUse"><stop stop-color="#465568"/><stop offset="1" stop-color="#465568"/></linearGradient></defs></svg>