<svg viewBox="0 0 28 28" fill="none" xmlns="http://www.w3.org/2000/svg"><path d="M27.741 26.496L1.503.26C.95-.295 0 .099 0 .882v26.237c0 .487.394.88.88.88h26.238c.782 0 1.178-.948.623-1.503zm-25.98-.258V3.008l3.391 3.39-.632.633a.88.88 0 101.245 1.245l.633-.632 2.555 2.555-.632.633a.88.88 0 101.245 1.245l.632-.632L12.755 14l-.632.633a.88.88 0 101.245 1.245l.632-.632 2.556 2.555-.632.633a.88.88 0 101.245 1.245l.632-.632 2.556 2.555-.633.633a.88.88 0 101.246 1.245l.632-.632 3.39 3.39H1.762z" fill="#fff"/><path d="M8.393 14.681c-1.034-1.033-2.807-.3-2.807 1.163v4.925c0 .907.738 1.645 1.644 1.645h4.925c1.463 0 2.198-1.773 1.163-2.807L8.393 14.68zm-1.046 5.971v-4.525l4.526 4.525H7.347z" fill="#fff"/></svg>