<svg width="40" height="40" fill="none" xmlns="http://www.w3.org/2000/svg"><g clip-path="url(#clip0)" fill="#9DA6B2"><path d="M37.34 20.518a1.172 1.172 0 010-1.036l1.491-3.052a3.472 3.472 0 00-1.498-4.611l-3-1.592a1.172 1.172 0 01-.61-.838l-.587-3.346a3.473 3.473 0 00-3.922-2.85l-3.363.475a1.172 1.172 0 01-.986-.32L22.424.986a3.472 3.472 0 00-4.849 0l-2.441 2.362a1.173 1.173 0 01-.986.32l-3.363-.475a3.472 3.472 0 00-3.923 2.85l-.587 3.346c-.063.36-.285.666-.609.838l-3 1.592a3.473 3.473 0 00-1.499 4.611l1.492 3.052c.161.33.161.707 0 1.036L1.167 23.57a3.472 3.472 0 001.499 4.611l3 1.593c.324.171.546.477.61.838l.586 3.346a3.47 3.47 0 003.923 2.85l3.363-.476a1.17 1.17 0 01.986.32l2.441 2.362a3.475 3.475 0 004.849 0l2.441-2.362c.264-.255.623-.371.986-.32l3.363.476a3.472 3.472 0 003.922-2.85l.587-3.346c.064-.361.286-.667.61-.838l3-1.593a3.472 3.472 0 001.498-4.61l-1.491-3.053zm-1.088 5.625l-3 1.592a3.464 3.464 0 00-1.8 2.478l-.588 3.346a1.175 1.175 0 01-1.327.964l-3.363-.476a3.464 3.464 0 00-2.913.947l-2.441 2.361c-.46.445-1.18.445-1.64 0l-2.442-2.361a3.46 3.46 0 00-2.913-.947l-3.363.476a1.175 1.175 0 01-1.328-.964l-.586-3.346a3.464 3.464 0 00-1.8-2.478l-3.001-1.592a1.175 1.175 0 01-.507-1.56l1.492-3.052a3.465 3.465 0 000-3.062L3.24 15.417a1.175 1.175 0 01.507-1.56l3-1.592a3.465 3.465 0 001.8-2.478l.587-3.346c.11-.63.694-1.053 1.327-.964l3.364.476a3.465 3.465 0 002.913-.946l2.441-2.362a1.175 1.175 0 011.64 0l2.442 2.362a3.464 3.464 0 002.912.946l3.364-.476a1.175 1.175 0 011.327.964l.587 3.346a3.464 3.464 0 001.8 2.478l3 1.592c.566.3.789.985.508 1.56l-1.492 3.052a3.465 3.465 0 000 3.062l1.492 3.052c.28.575.058 1.26-.507 1.56z"/><path d="M28.43 11.572a1.155 1.155 0 00-1.632 0L11.572 26.797a1.154 1.154 0 001.632 1.632l15.225-15.226c.45-.45.45-1.18 0-1.631zM15.386 9.619a4.234 4.234 0 00-4.23 4.23 4.234 4.234 0 004.23 4.229 4.234 4.234 0 004.23-4.23 4.234 4.234 0 00-4.23-4.23zm0 6.152a1.925 1.925 0 01-1.923-1.923c0-1.06.863-1.922 1.923-1.922s1.922.862 1.922 1.922-.862 1.923-1.922 1.923zm9.228 6.151a4.234 4.234 0 00-4.23 4.23 4.234 4.234 0 004.23 4.23 4.234 4.234 0 004.23-4.23 4.234 4.234 0 00-4.23-4.23zm0 6.152a1.925 1.925 0 01-1.922-1.922c0-1.06.862-1.922 1.922-1.922s1.923.862 1.923 1.922-.863 1.922-1.923 1.922z"/></g><defs><clipPath id="clip0"><path fill="#fff" d="M0 0h40v40H0z"/></clipPath></defs></svg>