<svg width="40" height="40" fill="none" xmlns="http://www.w3.org/2000/svg"><g opacity=".8" clip-path="url(#clip0)" fill="#818B99"><path d="M36.991 10.853l-.001-.031c-.018-.384-.03-.79-.036-1.243a4.24 4.24 0 00-3.992-4.153c-4.599-.257-8.157-1.756-11.196-4.72L21.74.683a2.56 2.56 0 00-3.48 0l-.025.025c-3.04 2.963-6.598 4.462-11.197 4.72A4.24 4.24 0 003.047 9.58c-.007.45-.02.856-.036 1.243l-.002.072c-.09 4.69-.2 10.526 1.752 15.824 1.073 2.913 2.7 5.445 4.832 7.527 2.43 2.37 5.611 4.253 9.457 5.594a2.909 2.909 0 001.513.105c.132-.026.263-.062.39-.106 3.84-1.343 7.019-3.226 9.446-5.597 2.132-2.082 3.758-4.615 4.832-7.529 1.96-5.313 1.85-11.16 1.76-15.859zM33.03 25.9c-2.06 5.584-6.263 9.418-12.852 11.722a.529.529 0 01-.355 0c-6.595-2.3-10.801-6.132-12.859-11.716-1.8-4.883-1.698-10.24-1.607-14.967v-.026c.018-.406.03-.832.037-1.3A1.883 1.883 0 017.17 7.77c2.603-.146 4.89-.649 6.99-1.538 2.098-.888 3.961-2.14 5.696-3.827a.216.216 0 01.29 0c1.735 1.687 3.599 2.939 5.697 3.827 2.1.89 4.387 1.392 6.99 1.538a1.884 1.884 0 011.775 1.844c.007.47.02.895.038 1.299.09 4.732.189 10.094-1.616 14.987z"/><path d="M20 10.032c-5.497 0-9.969 4.472-9.969 9.969 0 5.497 4.472 9.969 9.969 9.969 5.496 0 9.968-4.472 9.968-9.97 0-5.496-4.472-9.968-9.968-9.968zm0 17.59c-4.203 0-7.622-3.419-7.622-7.621 0-4.203 3.42-7.622 7.622-7.622s7.621 3.42 7.621 7.622-3.419 7.621-7.621 7.621z"/><path d="M22.865 16.906l-4.63 4.63-1.257-1.257a1.174 1.174 0 00-1.66 1.66l2.087 2.087a1.172 1.172 0 001.66 0l5.46-5.46a1.174 1.174 0 00-1.66-1.66z"/></g><defs><clipPath id="clip0"><path fill="#fff" d="M0 0h40v40H0z"/></clipPath></defs></svg>