<svg width="62" height="62" fill="none" xmlns="http://www.w3.org/2000/svg"><g clip-path="url(#clip0)" fill="#37414E"><path d="M31.005 62c-1.95 0-3.9-.587-5.564-1.762-5.128-3.62-12.268-9.442-17.164-16.614-2.404-3.522-4.044-8.072-4.872-13.524-.732-4.82-.684-9.483-.515-12.547a10.046 10.046 0 015.827-8.57L25.444 1.23a13.198 13.198 0 0111.122 0l7.63 3.537a.908.908 0 11-.765 1.648l-7.63-3.537a11.386 11.386 0 00-9.593 0L9.482 10.63a8.233 8.233 0 00-4.777 7.023c-.335 6.052-.12 17.34 5.073 24.946 4.744 6.949 11.706 12.62 16.712 16.154a7.845 7.845 0 009.033 0C40.527 55.22 47.49 49.55 52.234 42.6c5.192-7.606 5.407-18.894 5.072-24.946a8.234 8.234 0 00-4.777-7.023l-5.84-2.707a.908.908 0 11.764-1.648l5.84 2.707a10.048 10.048 0 015.827 8.57c.17 3.064.217 7.728-.515 12.548-.828 5.452-2.467 10.002-4.871 13.523-4.897 7.173-12.037 12.994-17.165 16.614A9.64 9.64 0 0131.005 62z"/><path d="M31.005 56.59a4.21 4.21 0 01-2.442-.775c-3.687-2.603-6.992-5.347-9.823-8.155a.91.91 0 011.28-1.29c2.759 2.737 5.986 5.416 9.591 7.96.41.29.892.444 1.394.444.501 0 .983-.153 1.394-.443 4.642-3.277 11.075-8.503 15.362-14.784 1.843-2.698 4.83-9.092 4.139-21.595a2.83 2.83 0 00-1.648-2.409L33.525 7.79a5.947 5.947 0 00-2.52-.556c-.877 0-1.724.187-2.52.556l-16.727 7.754a2.828 2.828 0 00-1.648 2.41c-.691 12.502 2.296 18.896 4.138 21.594a42.726 42.726 0 003.126 4.013.908.908 0 01-1.367 1.196 44.556 44.556 0 01-3.26-4.184c-2.031-2.978-3.403-6.965-4.076-11.852-.575-4.18-.521-8.217-.375-10.868a4.642 4.642 0 012.698-3.957l16.727-7.754a7.748 7.748 0 013.284-.724c1.142 0 2.247.244 3.283.724l16.728 7.754a4.642 4.642 0 012.698 3.957c.309 5.597.142 15.99-4.452 22.72-4.441 6.505-11.052 11.88-15.816 15.243a4.21 4.21 0 01-2.441.775z"/><path d="M31.005 40.889c-6.645 0-12.05-5.407-12.05-12.051 0-6.645 5.405-12.05 12.05-12.05 6.644 0 12.05 5.405 12.05 12.05 0 6.644-5.406 12.05-12.05 12.05zm0-22.286c-5.643 0-10.235 4.592-10.235 10.235s4.592 10.234 10.235 10.234 10.234-4.591 10.234-10.234-4.591-10.235-10.234-10.235z"/><path d="M30.056 35.32a2.74 2.74 0 01-1.955-.826l-3.285-3.386a2.727 2.727 0 01.057-3.852 2.728 2.728 0 013.853.057l1.311 1.352 4.238-4.45c1.036-1.088 2.784-1.152 3.852-.095 1.62 1.605.596 3.325.094 3.852l-6.192 6.503a2.739 2.739 0 01-1.96.846h-.013zm-3.918-6.761c-.505.506-.188 1.11-.02 1.284l3.286 3.385c.17.175.408.276.652.276h.009a.912.912 0 00.649-.282l6.192-6.502c.167-.176.512-.737-.032-1.284-.353-.356-.939-.332-1.284.031l-4.889 5.134a.911.911 0 01-1.31.007l-1.969-2.03c-.178-.183-.78-.525-1.284-.02z"/></g><defs><clipPath id="clip0"><path fill="#fff" d="M0 0h62v62H0z"/></clipPath></defs></svg>