<svg viewBox="0 0 40 40" fill="none" xmlns="http://www.w3.org/2000/svg"><path d="M31.25 40H20c-.69 0-1.25-.56-1.25-1.25v-9.166c0-.69.56-1.25 1.25-1.25h11.25c.69 0 1.25.56 1.25 1.25v9.166c0 .69-.56 1.25-1.25 1.25zm-10-2.5H30v-6.666h-8.75V37.5z" fill="#9DA6B2"/><path d="M25.417 30.834H14.584c-.69 0-1.25-.56-1.25-1.25v-10c0-.69.56-1.25 1.25-1.25h10.833c.69 0 1.25.56 1.25 1.25v10c0 .69-.56 1.25-1.25 1.25zm-9.583-2.5h8.333v-7.5h-8.333v7.5z" fill="#9DA6B2"/><path d="M20 40H8.75c-.69 0-1.25-.56-1.25-1.25v-9.166c0-.69.56-1.25 1.25-1.25H20c.69 0 1.25.56 1.25 1.25v9.166c0 .69-.56 1.25-1.25 1.25zm-10-2.5h8.75v-6.666H10V37.5zm10-14.166c-.69 0-1.25-.56-1.25-1.25v-2.5a1.25 1.25 0 012.5 0v2.5c0 .69-.56 1.25-1.25 1.25z" fill="#9DA6B2"/><path d="M14.584 33.334c-.69 0-1.25-.56-1.25-1.25v-2.5a1.25 1.25 0 012.5 0v2.5c0 .69-.56 1.25-1.25 1.25zm10.832 0c-.69 0-1.25-.56-1.25-1.25v-2.5a1.25 1.25 0 012.5 0v2.5c0 .69-.56 1.25-1.25 1.25z" fill="#9DA6B2"/><path d="M37.083 40H2.917A2.92 2.92 0 010 37.083V14.167c0-.412.203-.797.542-1.03L19.292.22a1.247 1.247 0 011.418 0l18.75 12.916c.337.234.54.619.54 1.03v22.917A2.92 2.92 0 0137.083 40zM2.5 14.823v22.26c0 .23.187.417.417.417h34.166c.23 0 .417-.187.417-.417v-22.26L20 2.768 2.5 14.823z" fill="#9DA6B2"/></svg>