<svg width="40" height="40" fill="none" xmlns="http://www.w3.org/2000/svg"><path d="M38.285 30.03c-3.58-3.58-3.346-3.354-3.447-3.428l-9.476-6.997 3.676-3.676a8.218 8.218 0 008.554-1.927 8.215 8.215 0 001.603-9.334 1.172 1.172 0 00-1.886-.324l-3.03 3.031a1.17 1.17 0 11-1.657-1.657l3.03-3.03A1.172 1.172 0 0035.33.802a8.215 8.215 0 00-9.334 1.603 8.218 8.218 0 00-1.927 8.554l-4.24 4.24c-.863-.672.276.475-7.854-8.146l.852-.853a1.172 1.172 0 00-.225-1.832L6.326.603a4.166 4.166 0 00-5.097.627 4.166 4.166 0 00-.627 5.097l3.765 6.275a1.172 1.172 0 001.833.225l.803-.803c8.088 8.576 7.024 7.41 7.663 8.233.015.02.032.037.048.055l-3.76 3.759a8.218 8.218 0 00-8.553 1.927 8.214 8.214 0 00-1.603 9.334c.349.73 1.315.895 1.886.324l3.03-3.03a1.17 1.17 0 111.657 1.657l-3.03 3.03a1.172 1.172 0 00.323 1.885 8.213 8.213 0 009.334-1.603 8.218 8.218 0 001.927-8.554l3.21-3.21 7.476 9.084c.057.07-.13-.123 3.213 3.22a6.287 6.287 0 004.426 1.849c1.168 0 2.32-.34 3.29-1.038 2.955-2.128 3.303-6.358.745-8.917zM7.88 9.538a1.172 1.172 0 00-1.68-.025l-.596.596L2.61 5.122a1.827 1.827 0 01.275-2.235 1.827 1.827 0 012.235-.275l4.988 2.993-.596.595a1.171 1.171 0 00-.024 1.632c9.342 9.906 7.872 8.415 8.67 9.036l-1.778 1.777c-.615-.79.812.768-8.5-9.106zm5.835 18.399a1.171 1.171 0 00-.228 1.333 5.868 5.868 0 01-1.146 6.667 5.866 5.866 0 01-4.97 1.658l1.657-1.658a3.512 3.512 0 000-4.97 3.518 3.518 0 00-4.97 0L2.4 32.626a5.871 5.871 0 011.658-4.971 5.868 5.868 0 016.667-1.146 1.17 1.17 0 001.333-.228l14.22-14.219a1.17 1.17 0 00.229-1.333 5.868 5.868 0 011.145-6.668 5.87 5.87 0 014.97-1.657L30.966 4.06a3.492 3.492 0 00-1.03 2.486c0 .938.367 1.82 1.03 2.485a3.519 3.519 0 004.97 0l1.658-1.658a5.872 5.872 0 01-1.657 4.971 5.868 5.868 0 01-6.668 1.145 1.172 1.172 0 00-1.333.23l-14.22 14.218zm7.08-3.767l2.892-2.89 2.947 2.175-3.521 3.52c-2.394-2.908-2.245-2.733-2.318-2.805zM36.17 37.045c-1.367.984-3.383.74-4.69-.566l-3.096-3.096-3.776-4.589 3.931-3.93 4.837 3.57 3.252 3.252a3.516 3.516 0 01-.458 5.359z" fill="#949DAA"/></svg>