<svg viewBox="0 0 14 20" fill="none" xmlns="http://www.w3.org/2000/svg"><path d="M9.516 3.037H7.651V1.302h4.121c.217 0 .434.216.434.433 0 .347.304.651.65.651a.667.667 0 00.651-.65A1.74 1.74 0 0011.772 0H2.228A1.74 1.74 0 00.492 1.735c0 .347.304.651.651.651.347 0 .65-.304.65-.65 0-.261.174-.434.435-.434h4.121v1.691H4.484A3.823 3.823 0 00.666 6.811v7.81c0 .867.607 1.605 1.475 1.735L.883 18.742a.893.893 0 00.347 1.171c.13.087.26.087.39.087a.914.914 0 00.781-.477l.26-.52h8.59l.26.52a.914.914 0 00.782.477c.13 0 .26-.043.39-.087a.82.82 0 00.347-1.171l-1.258-2.386a1.771 1.771 0 001.475-1.736V6.855c.087-2.126-1.649-3.818-3.73-3.818zm1.041 11.8a1.26 1.26 0 010-2.516 1.26 1.26 0 010 2.516zm-8.33-7.505c0-1.345 1.085-2.386 2.43-2.386H9.43c1.345 0 2.43 1.084 2.43 2.386v2.126c0 .477-.39.824-.868.824h-7.94c-.476 0-.867-.347-.867-.824.044 0 .044-2.126.044-2.126zm1.215 4.946a1.26 1.26 0 010 2.516 1.26 1.26 0 010-2.516zm-.086 5.51l.694-1.346h5.857l.694 1.345H3.356z" fill="url(#paint0_linear)"/><defs><linearGradient id="paint0_linear" x1="7" y1="0" x2="7" y2="20" gradientUnits="userSpaceOnUse"><stop stop-color="#465568"/><stop offset="1" stop-color="#465568"/></linearGradient></defs></svg>