<svg width="auto" height="auto" viewBox="0 0 30 30" fill="none" xmlns="http://www.w3.org/2000/svg"><path d="M27.62 19.044c-.994-.874-2.2-1.629-3.584-2.244a1.172 1.172 0 10-.951 2.142c1.167.519 2.172 1.145 2.988 1.862a4.673 4.673 0 011.583 3.512v2.168c0 .646-.525 1.172-1.172 1.172H3.516a1.173 1.173 0 01-1.172-1.172v-2.168c0-1.348.577-2.628 1.583-3.512 1.184-1.04 4.633-3.46 11.073-3.46 4.782 0 8.672-3.89 8.672-8.672S19.782 0 15 0 6.328 3.89 6.328 8.672a8.662 8.662 0 003.39 6.872c-3.77.829-6.114 2.424-7.338 3.5A7.017 7.017 0 000 24.316v2.168A3.52 3.52 0 003.516 30h22.968A3.52 3.52 0 0030 26.484v-2.168a7.017 7.017 0 00-2.38-5.272zM8.672 8.672A6.335 6.335 0 0115 2.344a6.335 6.335 0 016.328 6.328A6.335 6.335 0 0115 15a6.335 6.335 0 01-6.328-6.328z" fill="#fff"/></svg>