<svg width="62" height="62" fill="none" xmlns="http://www.w3.org/2000/svg"><g clip-path="url(#clip0)" fill="#465568"><path d="M56.833 18.091v-4.133a3.103 3.103 0 00-3.1-3.1H52.7V8.792a3.104 3.104 0 00-3.1-3.1H9.3a3.104 3.104 0 00-3.1 3.1v3.1H4.133A4.138 4.138 0 000 16.024v35.133a5.173 5.173 0 005.167 5.167h51.666A5.173 5.173 0 0062 51.158v-27.9a5.173 5.173 0 00-5.167-5.167zm-2.066-4.133v4.133H12.4v-4.133c0-.57.463-1.033 1.033-1.033h40.3c.57 0 1.034.462 1.034 1.033zm-46.5-5.166c0-.571.463-1.033 1.033-1.034h40.3c.57 0 1.033.463 1.033 1.034v2.066h-37.2a3.103 3.103 0 00-3.1 3.1v4.133H8.267v-9.3zm-5.594 5.772a2.054 2.054 0 011.46-.606H6.2v4.133H4.133a2.064 2.064 0 01-1.46-3.527zm54.16 39.694H5.167a3.104 3.104 0 01-3.1-3.1V19.585c.625.372 1.339.57 2.066.573h52.7a3.104 3.104 0 013.1 3.1v7.233h-9.3a4.137 4.137 0 00-4.133 4.134v5.167a4.137 4.137 0 004.133 4.133h9.3v7.233a3.104 3.104 0 01-3.1 3.1zm3.1-12.4h-9.3a2.07 2.07 0 01-2.066-2.066v-5.167a2.07 2.07 0 012.066-2.067h9.3v9.3z"/><path d="M5.167 22.225c-.571 0-1.034.463-1.034 1.033v2.067a1.033 1.033 0 102.067 0v-2.067c0-.57-.463-1.033-1.033-1.033zm0 6.2c-.571 0-1.034.462-1.034 1.033v21.7a1.033 1.033 0 102.067 0v-21.7c0-.57-.463-1.033-1.033-1.033z"/></g><defs><clipPath id="clip0"><path fill="#fff" d="M0 0h62v62H0z"/></clipPath></defs></svg>