<svg viewBox="0 0 187 187" fill="none" xmlns="http://www.w3.org/2000/svg"><path d="M93.5 163.625c38.729 0 70.125-31.396 70.125-70.125S132.229 23.375 93.5 23.375 23.375 54.771 23.375 93.5s31.396 70.125 70.125 70.125z" fill="#788CA4"/><path d="M132.945 71.703v-50.52l-37.984-8.4-11.688.365v40.585L69.03 48.576 32.506 54.42v67.203l67.933 49.672 45.29-10.227V76.334l-12.784-4.631z" fill="#fff"/><path d="M121.258 23.375l11.687-2.191v127.101l-11.687 2.192V23.375zM83.273 13.148l11.688-.365 37.984 8.4-11.687 2.192-37.985-10.227zM69.03 48.576L32.505 54.42v67.203" stroke="#000" stroke-width=".5" stroke-linecap="round" stroke-linejoin="round"/><path d="M32.506 121.623l67.933 49.672V84.369L32.506 54.42v67.204z" stroke="#000" stroke-width=".5" stroke-linecap="round" stroke-linejoin="round"/><path d="M121.258 80.673l-20.819 3.696v86.926l45.29-10.227V76.334l-12.784 2.264" stroke="#000" stroke-width=".5" stroke-linecap="round" stroke-linejoin="round"/><path d="M121.258 80.673l-37.985-16.07V13.148l37.985 10.227v57.298z" stroke="#000" stroke-width=".5" stroke-linecap="round" stroke-linejoin="round"/><path d="M121.258 80.673l-17.108 3.039-3.711.657-31.41-13.85-36.523-16.1 36.523-5.843 14.244 5.157m49.672 24.866l12.784-2.265-12.784-4.631m-32.506 68.912L32.506 96.422m108.474 60.994l-35.427 7.305 6.209-8.401 25.201-4.382 4.017 5.478zM138.292 80.6l3.521-.658a1.459 1.459 0 011.724 1.461v41.798a.733.733 0 01-.599.73l-4.383.818a.717.717 0 01-.598-.156.734.734 0 01-.264-.56V81.316a.73.73 0 01.599-.716zm0 46.75l4.383-.818a.722.722 0 01.598.156.72.72 0 01.194.251c.046.096.07.202.07.309v20.453a1.459 1.459 0 01-1.552 1.455 1.455 1.455 0 01-.742-.257l-3.228-2.221a.723.723 0 01-.322-.599v-18.013a.73.73 0 01.599-.716zm-34.376 20.424l4.383-1.096a.772.772 0 01.328.001.756.756 0 01.501.396c.049.1.075.208.077.319v5.639l-3.243 4.047a1.46 1.46 0 01-2.601-.906v-7.684a.74.74 0 01.157-.452c.1-.13.24-.222.398-.264zm.307-2.572l4.383-.818a.73.73 0 00.599-.73v-9.511a.726.726 0 00-.244-.55.721.721 0 00-.574-.18l-4.383.54a.748.748 0 00-.643.731v9.803a.745.745 0 00.264.559.717.717 0 00.598.156zm-.862-13.718l5.844-.73V95.326l-3.74-9.13a1.096 1.096 0 00-2.104.408v44.88z" stroke="#000" stroke-width=".5" stroke-linecap="round" stroke-linejoin="round"/><path d="M132.945 148.285l-20.453 4.018V96.422l-5.142-13.28" stroke="#000" stroke-width=".5" stroke-linecap="round" stroke-linejoin="round"/><path d="M118.175 150.345l-4.032-11.95a.727.727 0 01.307-.862l3.404-2.104a.72.72 0 00.307-.833l-4.033-12.9a.716.716 0 01.351-.847l3.346-1.87a.717.717 0 00.35-.833l-4.061-13.923a.742.742 0 01.336-.847l3.521-2.002a.715.715 0 00.252-.24.72.72 0 00.113-.329v-5.216a.732.732 0 00-.95-.701l-4.894 1.534v55.881l5.128-1.008a.751.751 0 00.584-.645.734.734 0 00-.029-.305z" stroke="#000" stroke-width=".5" stroke-linecap="round" stroke-linejoin="round"/><path d="M121.258 150.579l-2.82.555-2.454-7.305a.727.727 0 01.307-.862l3.374-2.074a.715.715 0 00.307-.833l-3.988-12.476a.744.744 0 01.35-.877l3.288-1.68a.76.76 0 00.365-.862l-4.032-13.66a.711.711 0 01.336-.832l4.967-2.922v43.828z" stroke="#000" stroke-width=".5" stroke-linecap="round" stroke-linejoin="round"/></svg>