<svg viewBox="0 0 187 187" fill="none" xmlns="http://www.w3.org/2000/svg"><path d="M93.5 163.625c38.729 0 70.125-31.396 70.125-70.125S132.229 23.375 93.5 23.375 23.375 54.771 23.375 93.5s31.396 70.125 70.125 70.125z" fill="#788CA4"/><path d="M175.678 35.618v118.701l-60.746-16.742v2.921a8.609 8.609 0 01-1.023 4.047 8.423 8.423 0 01-9.656 3.828l-2.104-.585-25.815-7.114-1.739-.424a37.436 37.436 0 01-9.948 2.922 41.306 41.306 0 01-4.749.482c-11.512.468-21.066-4.383-22.279-11.819-.789-4.894 2.162-9.832 7.422-13.572l-33.602-9.277V98.029l164.239-62.411z" fill="#fff"/><path d="M175.678 35.618L11.322 98.073l164.356 45.289V35.618z" stroke="#000" stroke-width=".5" stroke-linecap="round" stroke-linejoin="round"/><path d="M11.322 98.073v10.957l164.356 45.289v-10.957L11.322 98.072z" stroke="#000" stroke-width=".5" stroke-linecap="round" stroke-linejoin="round"/><path d="M86.794 126.605a9.516 9.516 0 000-2.732c-1.11-6.837-9.233-11.469-19.46-11.819a37.384 37.384 0 00-7.567.482c-13.572 2.221-23.463 10.869-22.09 19.343 1.213 7.451 10.753 12.286 22.28 11.819a41.242 41.242 0 004.69-.526 37.45 37.45 0 009.934-2.922v0" stroke="#000" stroke-width=".5" stroke-linecap="round" stroke-linejoin="round"/><path d="M86.794 126.605a9.516 9.516 0 000-2.732c-1.11-6.837-9.233-11.469-19.46-11.819a37.384 37.384 0 00-7.567.482c-13.572 2.221-23.463 10.869-22.09 19.343 1.213 7.451 10.753 12.286 22.28 11.819a41.242 41.242 0 004.69-.526 37.45 37.45 0 009.934-2.922v0" stroke="#000" stroke-width=".5" stroke-linecap="round" stroke-linejoin="round"/><path d="M67.276 112.054a41.31 41.31 0 00-4.748.482c-13.572 2.221-23.463 10.869-22.09 19.343 1.082 6.822 9.234 11.468 19.46 11.819m16.436-3.024h-.015m25.83 7.115a8.474 8.474 0 01-4.15-7.305" stroke="#000" stroke-width=".5" stroke-linecap="round" stroke-linejoin="round"/><path d="M114.932 140.498a8.609 8.609 0 01-1.023 4.047 8.428 8.428 0 01-9.656 3.828l-2.104-.585-25.815-7.114-1.739-.424-9.072-2.498-2.191-.614a8.37 8.37 0 01-6.239-6.954v-.906a8.185 8.185 0 013.326-6.669 8.184 8.184 0 017.354-1.205l2.104.584 4.266 1.169.525.146 8.985 2.484 3.17.876 2.718.745 8.473 2.338m-.029-26.589v-2.82m0 40.161V111.63m16.947 28.868V111.63m0-8.473v-2.82m-8.474.614c12.482 0 22.601-3.794 22.601-8.474s-10.119-8.473-22.601-8.473-22.6 3.794-22.6 8.473c0 4.68 10.118 8.474 22.6 8.474z" stroke="#000" stroke-width=".5" stroke-linecap="round" stroke-linejoin="round"/><path d="M127.277 89.117c.23.353.356.763.365 1.183 0 2.455-4.646 4.588-11.454 5.654h-.35l-.906.117a68.526 68.526 0 01-16.947 0l-.906-.117h-.35c-6.808-1.066-11.454-3.2-11.454-5.653.001-.422.128-.835.365-1.184m29.292 14.04a68.546 68.546 0 01-16.947 0m-12.345-2.688a14.18 14.18 0 013.974-2.338" stroke="#000" stroke-width=".5" stroke-linecap="round" stroke-linejoin="round"/><path d="M123.288 98.131a14.502 14.502 0 013.989 2.338 4.555 4.555 0 011.782 3.257c0 3.551-5.844 6.589-14.127 7.846a55.378 55.378 0 01-8.474.628 57.216 57.216 0 01-8.473-.628c-8.298-1.257-14.127-4.295-14.127-7.846a4.497 4.497 0 011.782-3.316" stroke="#000" stroke-width=".5" stroke-linecap="round" stroke-linejoin="round"/><path d="M85.64 100.469a2.16 2.16 0 00-.365 1.198c0 2.6 5.215 4.835 12.71 5.843a68.45 68.45 0 0016.947 0c7.48-.993 12.71-3.228 12.71-5.843a2.293 2.293 0 00-.365-1.198M49.77 135.401c2.65-.641 4.397-2.826 3.9-4.88-.497-2.055-3.048-3.201-5.7-2.561-2.65.641-4.396 2.826-3.9 4.881.497 2.055 3.049 3.201 5.7 2.56zm33.737-9.76a3.317 3.317 0 00.439-2.484c-.512-2.045-3.054-3.214-5.713-2.557a5.387 5.387 0 00-3.579 2.601m31.805-30.256c4.679 0 8.473-1.158 8.473-2.586s-3.794-2.586-8.473-2.586c-4.68 0-8.474 1.158-8.474 2.586s3.794 2.586 8.474 2.586zm-95.137 16.07l164.356-63.288" stroke="#000" stroke-width=".5" stroke-linecap="round" stroke-linejoin="round"/></svg>