<svg viewBox="0 0 187 187" fill="none" xmlns="http://www.w3.org/2000/svg"><path d="M93.5 163.625c38.729 0 70.125-31.396 70.125-70.125S132.229 23.375 93.5 23.375 23.375 54.771 23.375 93.5s31.396 70.125 70.125 70.125z" fill="#788CA4"/><path d="M175.313 117.912V56.67h-.22L90.111 73.792l-11.965-6.837-44.953 8.765v9.526L10.986 89.73v9.306l72.287 49.073 92.04-20.906v-9.292z" fill="#fff"/><path d="M10.986 89.73v9.292l72.331 49.088v-9.292l-72.33-49.087z" stroke="#000" stroke-width=".5" stroke-linecap="round" stroke-linejoin="round"/><path d="M38.364 84.223l-5.171 1.037-22.207 4.47 10.358 7.028.088.073h.015l61.87 41.987 91.966-20.906V56.67" stroke="#000" stroke-width=".5" stroke-linecap="round" stroke-linejoin="round"/><path d="M89.95 73.821l85.114-17.107.219-.044m-91.966 91.44l91.966-20.906v-9.292l-91.966 20.906v9.292zm-32.55-47.101v5.727L33.192 95.37V75.735l10.987 7.1 6.588 4.266v4.69m45.465-9.686v-4.822l-45.464 9.818v4.689m0 9.219v5.727l45.464-9.818v-5.39" stroke="#000" stroke-width=".5" stroke-linecap="round" stroke-linejoin="round"/><path d="M50.767 87.101l45.465-9.817-18.087-10.33-44.953 8.781 17.575 11.366z" stroke="#000" stroke-width=".5" stroke-linecap="round" stroke-linejoin="round"/><path d="M85.216 84.442l11.016 7.086-45.464 9.481-12.404-7.976v-8.81l12.404 7.568 34.448-7.349zm0 0l11.016-2.337m79.051-17.59L96.232 80.352" stroke="#000" stroke-width=".5" stroke-linecap="round" stroke-linejoin="round"/><path d="M48.985 90.71l-10.62 2.323-5.172 1.124-11.849 2.601-10.358 2.264" stroke="#000" stroke-width=".5" stroke-linecap="round" stroke-linejoin="round"/></svg>