<svg width="187" height="187" fill="none" xmlns="http://www.w3.org/2000/svg"><path d="M93.5 163.625c38.729 0 70.125-31.396 70.125-70.125S132.229 23.375 93.5 23.375 23.375 54.771 23.375 93.5s31.396 70.125 70.125 70.125z" fill="#788CA4"/><path d="M133.866 115.575v-10.957l-8.021-.716V75.618c0-.277-.38-.526-.935-.642v-4.85l.511.306a1.26 1.26 0 001.754-.395c.035-.06.074-.119.116-.175l5.844 3.638c.438.278 1.096 0 1.461-.614a1.155 1.155 0 00-.088-1.578L49.54 18.233a1.184 1.184 0 00-1.46.613 1.184 1.184 0 00.13 1.607l2.543 1.593-.35.526a1.272 1.272 0 00.394 1.753l1.344.832v4.252c-.54.131-.92.38-.92.657v57.59l-13.003 6.677v12.053l94.231 62.089 21.914-28.488.73-22.279-21.227-2.133zm-77.065-30.68l-2.308 1.184v-5.844H56.8v4.66zm0-7.582h-2.308v-32.14H56.8v32.14zm65.742 26.297l-2.176-.205V90.651h2.176v12.959zm0-27.977v12.111h-2.191V76.86l-63.55-39.08v4.383h-2.31V30.08c0-.278-.379-.526-.934-.658v-3.33l.511.306a1.257 1.257 0 001.753-.394c.132-.19.234-.38.336-.54l65.669 40.993a1.13 1.13 0 01-.116.175 1.271 1.271 0 00.394 1.754l1.344.832v5.727c-.54.146-.92.395-.92.672l.014.015z" fill="#fff"/><path d="M38.174 94.391v12.053l94.231 62.09.73-24.836-24.105-4.018v-12.052l-23.375-2.922v-12.053l-24.106-3.287V97.313l-23.375-2.922zm116.875 23.375l-.73 22.28-21.914 28.488.73-24.836 21.914-25.932z" stroke="#000" stroke-width=".5" stroke-linecap="round" stroke-linejoin="round"/><path d="M109.03 139.68l24.836-24.105 21.183 2.191-21.914 25.932-24.105-4.018z" stroke="#000" stroke-width=".5" stroke-linecap="round" stroke-linejoin="round"/><path d="M109.03 127.628l24.836-23.01v10.957L109.03 139.68v-12.052z" stroke="#000" stroke-width=".5" stroke-linecap="round" stroke-linejoin="round"/><path d="M85.655 124.706l27.334-21.973 20.877 1.885-24.836 23.01-23.375-2.922zm0-12.053l27.451-20.877-.117 10.957-27.334 21.973v-12.053zm-24.105-3.287l30.372-19.533 21.184 1.943-27.451 20.877-24.106-3.287z" stroke="#000" stroke-width=".5" stroke-linecap="round" stroke-linejoin="round"/><path d="M61.55 97.313v12.053l30.372-19.533V79.358L61.55 97.313zm-23.376-2.922l23.375 2.922 30.373-17.955-19.474-2.556-34.274 17.59zm96.424-21.467c.38-.609.339-1.32-.092-1.59-.431-.27-1.089.006-1.469.615-.381.609-.34 1.32.091 1.59.431.27 1.089-.006 1.47-.615zM49.54 18.233a1.184 1.184 0 00-1.46.613c-.366.614-.336 1.315.102 1.593m84.953 53.091L48.167 20.438m1.373-2.205l84.969 53.105m-5.757 67.773c0 1.11-2.045 2.016-4.572 2.016-2.528 0-4.558-.906-4.558-2.016" stroke="#000" stroke-width=".5" stroke-linecap="round" stroke-linejoin="round"/><path d="M125.845 135.78c1.695.292 2.922 1.022 2.922 1.87a1.064 1.064 0 01-.321.73 7.67 7.67 0 01-8.503 0 1.048 1.048 0 01-.307-.73c0-.848 1.198-1.578 2.922-1.87m6.194 1.87v1.461m-9.13-1.461v1.461" stroke="#000" stroke-width=".5" stroke-linecap="round" stroke-linejoin="round"/><path d="M125.845 137.65c0 .409-.745.73-1.665.73-.921 0-1.651-.321-1.651-.73m2.381-62.69c.555.132.935.38.935.658s-.745.73-1.665.73c-.921 0-1.651-.32-1.651-.73 0-.409.38-.526.92-.657m-.92 62.689V75.618m3.316 0v62.032m-7.319-49.994h4.017v2.922h-4.017a1.46 1.46 0 110-2.922zm0 35.063h4.017v2.922h-4.017a1.46 1.46 0 110-2.922zm8.78-52.842a1.993 1.993 0 00-.117.175v0a1.246 1.246 0 01-.793.566 1.254 1.254 0 01-.96-.171l-.526-.322-1.461-.92-1.344-.833a1.273 1.273 0 01-.394-1.753v0a1.27 1.27 0 00.117-.175m1.621 2.805v6.019m1.461-5.114v5.114" stroke="#000" stroke-width=".5" stroke-linecap="round" stroke-linejoin="round"/><path d="M124.91 75.253c0 .175-.321.321-.73.321s-.731-.146-.731-.321M57.4 93.573c0 1.11-2.045 2.016-4.572 2.016-2.528 0-4.617-.905-4.617-2.016" stroke="#000" stroke-width=".5" stroke-linecap="round" stroke-linejoin="round"/><path d="M54.493 90.68c1.695.263 2.922.906 2.922 1.666a.934.934 0 01-.322.643 6.647 6.647 0 01-4.25 1.14 6.676 6.676 0 01-4.252-1.14.922.922 0 01-.307-.643c0-.76 1.198-1.461 2.922-1.666m6.194 1.432v1.461m-9.13-1.461v1.461" stroke="#000" stroke-width=".5" stroke-linecap="round" stroke-linejoin="round"/><path d="M54.493 92.112c0 .41-.745.73-1.666.73-.92 0-1.694-.32-1.694-.73m2.425-62.689c.555.132.935.38.935.658 0 .277-.745.73-1.666.73-.92 0-1.694-.321-1.694-.73 0-.41.38-.526.935-.658m-.892 62.689V30.081m3.317-.001v62.032M58.51 45.1h-3.944v-2.922h3.944a1.46 1.46 0 110 2.921zm0 35.062h-3.944V77.24h3.944a1.46 1.46 0 110 2.922zm-2.337-54.727c-.102.16-.204.35-.336.54a1.256 1.256 0 01-1.753.395l-.511-.307-1.461-.92-1.344-.833a1.271 1.271 0 01-.395-1.753v0l.35-.526m1.374 7.685v-4.543m1.461 4.543v-3.623" stroke="#000" stroke-width=".5" stroke-linecap="round" stroke-linejoin="round"/><path d="M53.558 29.716c0 .175-.321.321-.73.321-.41 0-.73-.146-.73-.321m68.254 60.935v32.141m0 2.922v3.74l-.482-.292-7.509-4.617-15.019-9.233-8.4-5.172-14.624-8.984-9.438-5.815-7.626-4.69-.453-.277V80.177m63.551 7.553V76.86l-63.55-39.08v4.412m-.001 35.063V45.114" stroke="#000" stroke-width=".5" stroke-linecap="round" stroke-linejoin="round"/></svg>