<svg width="187" height="187" fill="none" xmlns="http://www.w3.org/2000/svg"><path d="M93.5 163.625c38.729 0 70.125-31.396 70.125-70.125S132.229 23.375 93.5 23.375 23.375 54.771 23.375 93.5s31.396 70.125 70.125 70.125z" fill="#788CA4"/><path d="M161.068 27.349V159.65l-22.162-3.506-42.908-6.618-1.811-.278-31.688-4.879-36.07-5.508-.497-89.482 135.136-22.031z" fill="#fff"/><path d="M141.74 47.057l-.686-.906L30.037 62.002l2.264.453L141.74 47.057z" stroke="#000" stroke-width=".5" stroke-linecap="round" stroke-linejoin="round"/><path d="M141.74 47.057v-3.17l-.687-1.14v3.404l.687.906z" stroke="#000" stroke-width=".5" stroke-linecap="round" stroke-linejoin="round"/><path d="M141.054 42.747L30.037 59.606v2.396l111.017-15.851v-3.404z" stroke="#000" stroke-width=".5" stroke-linecap="round" stroke-linejoin="round"/><path d="M64.72 57.897l-.015 85.348-2.206 1.125-36.056-5.508-.511-89.482 135.136-22.031V159.65l-22.162-3.506V46.458" stroke="#000" stroke-width=".5" stroke-linecap="round" stroke-linejoin="round"/><path d="M138.906 156.145L62.499 144.37V57.342l33.5-4.763v96.948m-1.798-96.685v96.407m41.652-53.178h-.015a.599.599 0 00-.599.599v29.306c0 .331.268.599.599.599h.015a.6.6 0 00.599-.599V96.67a.6.6 0 00-.599-.599z" stroke="#000" stroke-width=".5" stroke-linecap="round" stroke-linejoin="round"/></svg>