<svg width="187" height="187" fill="none" xmlns="http://www.w3.org/2000/svg"><path opacity=".01" d="M187 0H0v187h187V0z" fill="#fff"/><path d="M93.5 163.625c38.729 0 70.125-31.396 70.125-70.125S132.229 23.375 93.5 23.375 23.375 54.771 23.375 93.5s31.396 70.125 70.125 70.125z" fill="#788CA4"/><path d="M23.258 88.358v52.593h140.484V46.107H23.258v42.25z" fill="#fff"/><path d="M63.653 114.026c-.21.163-.434.305-.672.424l-.278.117.95-.541zm12.403-17.18l.176-.088h.102l.818-.468 1.753-.979.79-.438.16-.131h.102l.438-.249h1.418c.126-.008.253-.008.38 0h.686c.178.003.354.028.526.073h.278l.262.088.278.117c.152.061.298.135.438.22l.161.087.394.292.147.117.16.146c.072.064.14.133.205.204.076.076.144.16.204.249.057.065.111.133.161.204l.073.117.132.205c0 .087.102.19.16.292.059.102.146.321.205.482.058.16.088.292.117.438.007.083.007.166 0 .249v.248c.029.267.029.537 0 .803a.838.838 0 010 .19v.307a.757.757 0 010 .161.279.279 0 010 .102.428.428 0 010 .132.849.849 0 010 .204 1.15 1.15 0 010 .205l-.088.234v.189s0 .103-.073.147a.802.802 0 000 .116c-.092.153-.195.3-.307.439v.073l-.219.233a.844.844 0 01-.117.117v0a.845.845 0 01-.117.117v0l-.146.103a6 6 0 01-.511.306l-.278.117-5.654 2.571a5.81 5.81 0 001.184.439 7.549 7.549 0 004.836-.249l.57-.248c.44-.213.856-.472 1.241-.774l.234-.176a7.72 7.72 0 001.125-1.168c.071-.077.135-.16.19-.249l.131-.175.102-.161.132-.233.131-.205.176-.351c.06-.119.113-.241.16-.365l.088-.234a.99.99 0 00.088-.248l.087-.263c.031-.091.056-.183.073-.278 0-.175.088-.35.117-.51v-.205a1.13 1.13 0 010-.22v0-.818a7.466 7.466 0 00-.789-3.36l-.029-.511-.175-.292a1.86 1.86 0 00-.102-.176l-.117-.175-.161-.22-.102-.262-.176-.205-.175-.204-.16-.16-.22-.22-.073-.088-.117-.102-.248-.219-.35-.263-.278-.19-.292-.175c-.19-.103-.38-.22-.585-.307h-.292l-.365-.146-.395-.19-.38-.117h-2.191m6.954 11.235l.132-.205.175-.35c0-.117.102-.249.16-.366l.088-.233a.998.998 0 00.088-.249m.278-1.271v.205m.072-.906v.19m-.993-4.339l-.175-.292m-.994-1.359l-.219-.22m-.073-.014l-.248-.219m-.745-.614l-.292-.175" stroke="#000" stroke-width=".5" stroke-linecap="round" stroke-linejoin="round"/><path d="M85.64 91.352h-.146l-.365-.146-.395-.175m-.336-.117h-.277m-1.241-.234h-.395" stroke="#000" stroke-width=".5" stroke-linecap="round" stroke-linejoin="round"/><path d="M89.439 103.04l.292-.161.146-.087.54-.293.176-.087a7.642 7.642 0 003.155-2.922 7.64 7.64 0 00-4.63-11.41c-.293 0-.585-.117-.877-.16h-3.244l-.35.116-.366.146" stroke="#000" stroke-width=".5" stroke-linecap="round" stroke-linejoin="round"/><path d="M87.35 104.209a7.707 7.707 0 001.124-1.169 1.62 1.62 0 00.19-.249l.132-.175.102-.161.132-.233.131-.205.175-.35c.06-.119.114-.241.161-.366l.088-.233a1.01 1.01 0 00.087-.249l.088-.263c.031-.09.055-.183.073-.277 0-.176.088-.35.117-.512v-.204a1.13 1.13 0 010-.22v-.817a7.466 7.466 0 00-.789-3.36l-.044-.541-.175-.292a1.86 1.86 0 00-.102-.176l-.117-.175-.161-.22-.102-.262-.176-.205-.175-.204-.16-.16-.22-.22-.073-.088-.117-.102-.248-.219-.35-.263-.278-.19-.292-.175c-.19-.103-.38-.22-.585-.307h-.292l-.365-.146-.395-.19-.38-.117h-2.191m-5.011 5.303l1.753-.978.57-.278c.147-.084.288-.177.424-.278l-.16.132-.79.438-2.571 1.461h-.102l-.176.088.176-.088h.102l.818-.467m2.878-1.71l-.16.088.16-.088zm-9.54-28.561a13.737 13.737 0 01-.993-1.695 5.975 5.975 0 01-.73-3.375 5.405 5.405 0 10-10.359 1.461 8.211 8.211 0 1112.082 3.507v.102zm-11.775-2.878a5.39 5.39 0 004.251 2.644 3.916 3.916 0 012.732 1.622 8.253 8.253 0 01-6.983-4.266zm-.175-.278l.175.336-.175-.336zm21.49 25.903l-3.682-.19m17.619-9.774l-.058 6.852" stroke="#000" stroke-width=".5" stroke-linecap="round" stroke-linejoin="round"/><path d="M94.04 74.742l.22-28.635H23.258v39.781l49.497 2.47m57.268-18.233a8.237 8.237 0 01-8.254-.6 10.329 10.329 0 011.914-.16h.19a5.406 5.406 0 10-5.362-6.063v0a5.723 5.723 0 01-.175.73 8.213 8.213 0 017.517-9.485 8.208 8.208 0 017.642 3.983 8.218 8.218 0 01-.127 8.617 8.203 8.203 0 01-3.345 2.978v0zM97.81 74.917l-.059 8.342" stroke="#000" stroke-width=".5" stroke-linecap="round" stroke-linejoin="round"/><path d="M97.839 70.9l.175-24.793h65.728v46.239l-64.778-2.688m-30.11 38.408a8.201 8.201 0 01-6.28.404 8.194 8.194 0 01-4.72-4.159v0a5.403 5.403 0 005.992 2.839 5.408 5.408 0 004.234-5.103v-.687a8.273 8.273 0 012.834-6.603 8.238 8.238 0 01-2.06 13.323v-.014zm-1.651-15.355c-.336.453-.76.994-1.242 1.593a5.3 5.3 0 01-4.076 2.279h-.131a4.788 4.788 0 00-1.461.467 5.405 5.405 0 00-2.73 3.097 5.39 5.39 0 00.26 4.12v0a8.253 8.253 0 011.769-9.627 4.383 4.383 0 003.082-.117l.278-.117c.237-.118.462-.26.672-.424v0l2.644-1.461c.315.048.627.111.935.19v0zm-4.383-6.413l-.19-.073-.35-.103h-.541a1.836 1.836 0 00-.277 0h-.322a4.887 4.887 0 00-1.023.117l-.496.146-.482.205a4.486 4.486 0 00-2.119 5.844" stroke="#000" stroke-width=".5" stroke-linecap="round" stroke-linejoin="round"/><path d="M58.744 114.289c.278.161.572.293.877.395a4.389 4.389 0 003.082-.117l.95-.526c.298-.214.568-.464.804-.745l.146-.19s.102-.132.146-.219a1.89 1.89 0 00.117-.176.451.451 0 00.073-.146v-.073c.045-.075.084-.153.117-.234a1.121 1.121 0 000-.204 4.05 4.05 0 00.394-1.023v-.219a4.59 4.59 0 00-.453-2.294l-.146-.409m2.352-6.326l-8.181 4.617.482-.205.497-.146a4.82 4.82 0 011.022-.116h.336c.093-.008.185-.008.278 0h.54l.351.102.19.073" stroke="#000" stroke-width=".5" stroke-linecap="round" stroke-linejoin="round"/><path d="M76.056 96.846l.176-.088h.102l.818-.468 1.753-.978.79-.439.16-.131h.102l.438-.248h.775l.409-.088h.234a3.01 3.01 0 01.38 0h.686c.178.003.354.027.526.073h.278l.262.088.278.117c.152.06.298.134.438.219l.161.087.394.293.147.116.16.146c.072.065.14.133.205.205.076.076.144.16.204.248.058.066.111.134.161.205l.073.117.132.204.16.292c.073.161.146.322.205.483.058.16.088.292.117.438.007.083.007.166 0 .248v.249c.029.267.029.536 0 .803a.826.826 0 010 .19v.307a.757.757 0 010 .16.275.275 0 010 .103.42.42 0 010 .131.845.845 0 010 .205c.006.068.006.136 0 .204-.026.08-.055.158-.088.234v.19s0 .102-.073.146a.816.816 0 000 .117 3.949 3.949 0 01-.307.438v.073l-.219.234a.84.84 0 01-.117.117v0a.897.897 0 01-.117.117v0l-.146.102a5.953 5.953 0 01-.511.307l-.278.117-5.654 2.659-11.161 6.296-1.812 1.008-2.644 1.461c.298-.214.568-.464.804-.745l.146-.19s.102-.131.146-.219a2.05 2.05 0 00.117-.175.461.461 0 00.073-.146v-.073c.045-.075.084-.153.117-.234a1.15 1.15 0 000-.205 4.06 4.06 0 00.394-.935v-.219a4.582 4.582 0 00-.453-2.293l-.146-.41m28.956-3.535l-.03 3.302" stroke="#000" stroke-width=".5" stroke-linecap="round" stroke-linejoin="round"/><path d="M93.748 111.835l-.219 29.058H23.258V88.357l51.732 2.499m53.909 40.161a8.241 8.241 0 01-11.001-3.755 5.4 5.4 0 007.365 2.386 5.406 5.406 0 00-2.544-10.187v0a8.764 8.764 0 01-3.769-1.125 7.976 7.976 0 012.702-2.133 8.235 8.235 0 0111.03 3.725 8.23 8.23 0 01-3.725 11.03l-.058.059z" stroke="#000" stroke-width=".5" stroke-linecap="round" stroke-linejoin="round"/><path d="M97.883 91.966l65.859 2.644v46.283H97.357l.175-24.836m.029-3.974l.03-4.573m-17.137-1.855s-4.748 4.544-8.08 7.641c-.54.511-1.036.979-1.46 1.461a8.264 8.264 0 00-2.834 6.603v.687a5.405 5.405 0 01-10.227 2.264v0a5.392 5.392 0 012.469-7.217 4.788 4.788 0 011.46-.467h.132a5.31 5.31 0 004.076-2.279c.483-.599.906-1.14 1.242-1.593l.891-1.183 11.147-6.384c.377.198.773.355 1.184.467zm-18.686 10.957h-.073" stroke="#000" stroke-width=".5" stroke-linecap="round" stroke-linejoin="round"/><path d="M89.555 103.171a7.689 7.689 0 014.252 1.461v0a32.415 32.415 0 013.784 2.922c.423.351.847.731 1.314 1.14 3.959 3.462 13.149 10.767 15.282 12.184a6.596 6.596 0 013.038 4.47v0a8.1 8.1 0 00.541 1.651 1.2 1.2 0 00.132.278v0a5.409 5.409 0 004.593 2.989 5.408 5.408 0 004.845-2.562 5.403 5.403 0 00-1.875-7.506 5.403 5.403 0 00-2.742-.737v0a8.768 8.768 0 01-3.77-1.125 20.487 20.487 0 01-2.921-1.972 166.876 166.876 0 01-13.558-12.491c-2.206-2.382-4.193-4.646-4.865-7.305a8.064 8.064 0 01-.234-1.578 8.242 8.242 0 01.263-2.41v0c0-.22.117-.439.19-.672a11.28 11.28 0 011.081-2.294c1.943-3.214 5.406-5.844 8.488-8.693 3.989-3.594 10.417-10.226 12.477-11a10.715 10.715 0 011.841-.512 10.318 10.318 0 011.913-.16h.19a5.409 5.409 0 004.929-3.182 5.405 5.405 0 10-10.29-2.896 5.907 5.907 0 01-.176.73 6.115 6.115 0 01-1.271 2.192c-1.212 1.3-10.139 9.043-12.695 11.19-1.315 1.096-3.769 3.755-6.574 5.917a19.387 19.387 0 01-3.799 2.352 7.13 7.13 0 01-4.383.731 7.613 7.613 0 01-.993-.248c-.45-.14-.889-.311-1.315-.512" stroke="#000" stroke-width=".5" stroke-linecap="round" stroke-linejoin="round"/><path d="M89.439 103.04l.292-.161.146-.087.54-.293.176-.087a7.642 7.642 0 003.155-2.922 7.64 7.64 0 00-4.63-11.41c-.293 0-.585-.117-.877-.16h-3.244l-.35.116-.366.146m.453-4.105a37.677 37.677 0 01-6.603-7.655c-1.972-2.66-5.844-7.641-7.655-10.446a13.72 13.72 0 01-.935-1.695 5.976 5.976 0 01-.73-3.375 5.405 5.405 0 10-10.359 1.461l.132.293.175.321c.026.054.06.104.102.146v.102c.132.176.263.366.41.526l.218.234.205.205.19.146.22.175.189.132.16.102.176.102.248.132h.323l.248.102h.322l.336.073h.657a3.915 3.915 0 012.98 2.206c.228.282.429.585.6.906.803 1.46 8.312 12.666 10.387 15.456a42.373 42.373 0 013.36 4.997v.073m43.374-21.111a3.71 3.71 0 100-7.42 3.71 3.71 0 000 7.42z" stroke="#000" stroke-width=".5" stroke-linecap="round" stroke-linejoin="round"/><path d="M63.156 64.442a3.71 3.71 0 100-7.422 3.71 3.71 0 000 7.422zm-.453 61.097a3.711 3.711 0 100-7.422 3.711 3.711 0 000 7.422zm59.694 3.067a3.71 3.71 0 10.002-7.42 3.71 3.71 0 00-.002 7.42zm0-82.499l-93.894 94.786h3.828L126.4 46.107h-4.003zm-35.296 58.277l6.647 7.451 3.784 4.222 22.221 24.836h3.711l-25.903-28.81-3.783-4.207-4.223-4.705-.116-.131-.541-.584" stroke="#000" stroke-width=".5" stroke-linecap="round" stroke-linejoin="round"/><path d="M76.45 92.492l-1.46-1.636-2.235-2.498-37.795-42.25h3.287l38.145 42.425 1.885 2.103m-17.663 21.199a1.403 1.403 0 100-2.805 1.403 1.403 0 000 2.805zM94.26 46.107h3.754M23.258 85.888v2.47m140.484 3.988v2.264M93.53 140.893h3.827" stroke="#000" stroke-width=".5" stroke-linecap="round" stroke-linejoin="round"/></svg>