<svg width="187" height="187" fill="none" xmlns="http://www.w3.org/2000/svg"><path opacity=".01" d="M187 0H0v187h187V0z" fill="#fff"/><path d="M93.5 163.625c38.729 0 70.125-31.396 70.125-70.125S132.229 23.375 93.5 23.375 23.375 54.771 23.375 93.5s31.396 70.125 70.125 70.125z" fill="#788CA4"/><path d="M152.858 22.732v134.144H108.84v7.392l-39.139-7.392H34.157V22.732h118.701z" fill="#fff"/><path d="M69.701 136.642v-84.34m0 86.794v17.78h-2.994V35.165h55.588v121.711h-3.009V38.175H108.84M69.701 50.17V38.174m0 98.468v-84.34" stroke="#000" stroke-width=".5" stroke-linecap="round" stroke-linejoin="round"/><path d="M69.701 139.096v17.78l39.139 7.392V36.553l-39.139 1.621V50.17m0 .028h-1.87v5.273h1.87v-3.17m-.146 84.282h-1.724v5.274h1.724v-2.79" stroke="#000" stroke-width=".5" stroke-linecap="round" stroke-linejoin="round"/><path d="M68.576 50.198l4.997-.117a.948.948 0 01.935 1.052 1.198 1.198 0 01-.862 1.227h-5.844m.774 84.209l4.748.248a1.18 1.18 0 01.897.386 1.19 1.19 0 01.301.929c0 1.344-1.125 1.081-1.125 1.081l-4.82-.146h-.746M99.71 93.69c.291-1.256 1.285-1.169 1.285-1.169h6.954v1.228h-.424v1.607h.584V96.7h-6.997a1.734 1.734 0 01-1.461-1.461" stroke="#000" stroke-width=".5" stroke-linecap="round" stroke-linejoin="round"/><path d="M96.992 93.69h8.853v1.46h-8.853a.746.746 0 01-.745-.744.745.745 0 01.745-.716v0z" stroke="#000" stroke-width=".5" stroke-linecap="round" stroke-linejoin="round"/><path d="M69.701 156.876H34.156V22.732h118.702v134.144H108.84" stroke="#000" stroke-width=".5" stroke-linecap="round" stroke-linejoin="round"/></svg>