<svg viewBox="0 0 187 187" fill="none" xmlns="http://www.w3.org/2000/svg"><path opacity=".01" d="M187 0H0v187h187V0z" fill="#fff"/><path d="M93.5 163.625c38.729 0 70.125-31.396 70.125-70.125S132.229 23.375 93.5 23.375 23.375 54.771 23.375 93.5s31.396 70.125 70.125 70.125z" fill="#788CA4"/><path d="M143.639 23.448v134.319l-22.995 6.282-3.521.964-25.493 6.969-22.85-5.873-3.096-.789-22.323-5.742V20.906l22.323-2.732L91.63 15.02l7.889 1.27 21.125 3.434 22.995 3.725z" fill="#fff"/><path d="M91.63 171.982l-48.27-12.404V20.906l48.27-5.887v156.963z" stroke="#000" stroke-width=".5" stroke-miterlimit="10"/><path d="M143.639 157.767l-52.01 14.215V15.019l52.01 8.43v134.318z" stroke="#000" stroke-width=".5" stroke-miterlimit="10"/><path d="M43.36 159.578l52.258-11.132 48.021 9.321M43.36 20.906l19.241 2.703h.015m9.978 1.417l14.55 2.045 4.486.643 3.988.555v54.552m0 65.625V88.27m19.533-61.959h-.014l-15.925 1.593-3.594.365m29.876-2.995l18.145-1.826M65.684 25.83v137.693m0 1.797v-1.797l3.097.628v1.958l-3.097-.789zm0-142.062v-5.084m54.96 8.956v136.919m0-139.491v-4.835m-23.624 3.9l-5.39-.803h-.015l-2.206.248m-.116-2.615l2.19-.248h.337l5.332.804" stroke="#000" stroke-width=".5" stroke-miterlimit="10"/><path d="M98.847 21.315l21.797 3.244 4.85.716 15.866 2.352a1.285 1.285 0 011.081 1.27.734.734 0 010 .176 1.257 1.257 0 01-1.256 1.096h-.205l-20.336-3.039-5.493-.833-14.346-2.118m-14.858-.702l-13.353 1.55-6.852.803-19.62 2.264a1.256 1.256 0 01-1.461-1.11.558.558 0 010-.146 1.286 1.286 0 011.125-1.271l16.786-1.943 3.068-.366 21.914-2.542" stroke="#000" stroke-width=".5" stroke-miterlimit="10"/><path d="M89.182 18.838c.173-1.181-.592-2.272-1.71-2.436-1.118-.164-2.164.661-2.337 1.843-.174 1.181.592 2.272 1.71 2.436 1.117.164 2.164-.661 2.337-1.843zm.314 6.36c.173-1.181-.593-2.272-1.71-2.436-1.118-.164-2.165.661-2.338 1.843-.173 1.181.593 2.272 1.71 2.436 1.118.164 2.164-.661 2.338-1.843z" stroke="#000" stroke-width=".5" stroke-miterlimit="10"/><path d="M89.19 18.612l.102 1.841.117 2.557v1.475m-1.811-3.842v.073l.102 2.03m11.906-1.739c1.118-.164 1.884-1.255 1.711-2.436-.174-1.182-1.22-2.007-2.338-1.843-1.117.164-1.883 1.255-1.71 2.436.173 1.182 1.22 2.007 2.337 1.843zm-.381 6.891c1.119-.158 1.89-1.245 1.722-2.427-.167-1.182-1.209-2.012-2.327-1.854-1.119.158-1.89 1.245-1.722 2.427.167 1.182 1.209 2.012 2.327 1.854z" stroke="#000" stroke-width=".5" stroke-miterlimit="10"/><path d="M96.962 24.836v-1.169l.132-2.557.16-2.118m1.608 2.002l-.015.321-.088 1.768m-9.247 65.231c1.17 0 2.118-1.243 2.118-2.776 0-1.533-.948-2.776-2.118-2.776s-2.119 1.243-2.119 2.776c0 1.533.949 2.776 2.119 2.776zm5.712 0c1.17 0 2.118-1.243 2.118-2.776 0-1.533-.948-2.776-2.118-2.776s-2.118 1.243-2.118 2.776c0 1.533.948 2.776 2.118 2.776zm25.42 73.879l-3.521.848v1.972m-67.332-19.266l-3.045.22a1.106 1.106 0 00-1.028 1.18 1.106 1.106 0 001.187 1.02l3.045-.22a1.106 1.106 0 001.028-1.18 1.107 1.107 0 00-1.187-1.02zm91.16-1.246h-3.053c-.613 0-1.11.494-1.11 1.103 0 .61.497 1.103 1.11 1.103h3.053c.613 0 1.111-.493 1.111-1.103 0-.609-.498-1.103-1.111-1.103zM49.843 36.13l-3.054.214a1.11 1.11 0 00-1.033 1.18 1.11 1.11 0 001.188 1.026l3.053-.214a1.11 1.11 0 001.033-1.18 1.11 1.11 0 00-1.187-1.026zm91.108-1.447h-3.053c-.613 0-1.11.493-1.11 1.103 0 .609.497 1.103 1.11 1.103h3.053c.613 0 1.111-.494 1.111-1.103 0-.61-.498-1.103-1.111-1.103z" stroke="#000" stroke-width=".5" stroke-miterlimit="10"/></svg>