<svg width="187" height="187" fill="none" xmlns="http://www.w3.org/2000/svg"><path opacity=".01" d="M187 0H0v187h187V0z" fill="#fff"/><path d="M93.5 163.625c38.729 0 70.125-31.396 70.125-70.125S132.229 23.375 93.5 23.375 23.375 54.771 23.375 93.5s31.396 70.125 70.125 70.125z" fill="#788CA4"/><path d="M179.257 99.344v-.438c-.584-3.652-7.597-3.652-11.249-3.068l-47.773 7.889c-1.168.146-2.629.584-3.944 1.023-.146 0-.292.146-.439.146-.73.292-1.46.584-2.045 1.022-.292.147-.584.439-.73.585-.292.292-.585.584-.731.876 0 .146-.146.146-.146.293-.292.438-.292.876-.292 1.461v.73c.584 3.506 5.552 4.529 12.856 3.506l6.574-1.022s2.192 4.821 4.529 5.551c2.338.731 10.811.585 19.285-1.169 8.473-1.753 12.71-2.775 13.879-4.675.73-1.314-.293-3.652-2.046-5.697l4.967-.877c5.114-.73 7.597-2.337 7.597-5.405l-.292-.73zm-57.853 10.665c-1.023.292-2.337.292-3.506 0 0 0-.146-1.461 2.337-1.899 2.484-.438 3.068 1.023 3.068 1.023-.438.438-1.168.584-1.899.876zm11.395-1.607l-2.191-2.922 26.735-4.675 2.338 2.922-26.882 4.675zm38.277-6.72c-1.023.292-2.484.438-3.506 0 0 0-.146-1.315 2.191-1.753 2.191-.439 3.36.876 3.36.876-.73.292-1.315.585-2.045.877zm4.675 27.026v-.438c-.585-3.652-7.597-3.652-11.249-3.068l-47.773 7.889c-1.169.146-2.63.585-3.945 1.023-.146 0-.292.146-.438.146-.73.292-1.461.584-2.045 1.023-.292.146-.585.438-.731.584-.292.292-.584.584-.73.877 0 .146-.146.146-.146.292-.292.438-.292.876-.292 1.461v.73c.584 3.506 5.551 4.529 12.856 3.506l6.574-1.022s2.191 4.821 4.529 5.551c2.337.731 10.811.585 19.284-1.168 8.474-1.753 12.711-2.776 13.879-4.675.731-1.315-.292-3.653-2.045-5.698l4.967-.877c5.113-.73 7.597-2.337 7.597-5.405l-.292-.731zm-57.853 10.665c-1.023.293-2.338.293-3.507 0 0 0-.146-1.461 2.338-1.899 2.484-.438 3.068 1.023 3.068 1.023-.438.438-1.169.584-1.899.876zm11.541-1.607l-2.191-2.922 26.735-4.675 2.337 2.922-26.881 4.675zm38.131-6.72c-1.023.292-2.484.438-3.507 0 0 0-.146-1.315 2.192-1.753 2.191-.438 3.36.876 3.36.876-.584.439-1.315.585-2.045.877zm15.778-76.991l-.731 12.418-4.383.438-.438 10.519s-21.037 3.214-34.186 5.26a6.828 6.828 0 01-.73 1.46c-2.045 3.36-4.675 6.72-19.869 9.496-14.902 2.63-45.873 8.035-47.042 8.328-.438 0-1.169-2.192-1.607-4.968-.438-2.775-.292-5.113.146-5.259 1.169-.146 44.997-7.889 51.863-9.35-2.776-1.315-4.675-3.506-5.551-6.574-2.046-1.607-3.214-3.945-3.653-7.013-.876-1.753-1.315-3.944-1.315-6.428 0-2.922.731-5.405 2.192-7.597-1.315-.292-3.214-.146-5.406 0-3.36.146-49.087 8.474-50.986 8.766-.439 0-1.17-2.045-1.607-4.675-.439-2.63-.293-4.821.146-4.967 1.607-.292 30.825-6.136 45.289-8.328 14.755-2.191 18.115.146 21.037 2.338l.146.146c2.922-1.315 6.429-2.337 10.227-3.068 2.776-.584 18.116-2.776 28.488-4.383l1.753 1.753v2.192a176.24 176.24 0 007.451-1.169c.585-.146.731-.146.731-.146l3.944 5.113-.146 4.09 4.237 1.608z" fill="#fff"/><path d="M67.787 90.432c-1.46 1.315-4.09 2.63-7.304 3.36-3.068.73-9.058 1.754-16.947 3.507-7.89 1.607-18.262 3.798-18.262 3.798-1.607-.146-1.753-1.169-1.753-1.169l-1.607-4.675s-2.045-4.675-2.191-4.82c-.293-.147-7.013 1.606-7.013 2.044 0 .439.73 5.99.73 5.99s-1.168.73-1.314 1.023c0 .146.73 5.698.73 5.698h-.876l-7.16-28.05-1.169-8.474 6.428-4.82c.585-.44 1.315-.585 1.9-.585h1.168c1.17 0 3.36.584 3.945 2.337.438 1.461 1.607 4.237 2.045 5.26 0 .146 0 .146.146.146v.146l1.754-.877s4.09 1.9 8.619 1.9 18.262-2.63 22.79-3.215c4.53-.584 8.766 0 11.834 1.315 3.068 1.461 4.237 3.653 4.53 6.428 0 .877.145 1.607 0 2.484 0 .292 0 .584-.147.877 0 0 .146.146.438.584.146.292.439.73.585 1.169 1.46 4.382-.585 7.304-1.9 8.62zm33.164 40.906c-1.461 1.315-4.09 2.63-7.305 3.361-3.068.73-9.058 1.753-16.947 3.506-7.889 1.607-18.261 3.798-18.261 3.798-1.608-.146-1.754-1.168-1.754-1.168l-1.607-4.675s-2.045-4.675-2.191-4.822c-.292-.146-7.013 1.608-7.013 2.046 0 .438.73 5.99.73 5.99s-1.168.73-1.314 1.022c-.146.146.73 5.698.73 5.698h-.73l-7.159-28.05-1.168-8.473 6.428-4.822c.584-.438 1.315-.584 1.899-.584h1.169c1.169 0 3.36.584 3.944 2.338.439 1.46 1.607 4.236 2.046 5.259 0 .146 0 .146.146.146v.146l1.753-.876s4.09 1.899 8.62 1.899c4.528 0 18.261-2.63 22.79-3.214 4.529-.585 8.766 0 11.834 1.315 3.068 1.46 4.236 3.652 4.528 6.428 0 .876.147 1.607 0 2.483 0 .292 0 .585-.146.877 0 0 .146.146.439.584.146.292.438.731.584 1.169 1.461 4.383-.584 7.305-2.045 8.619z" fill="#fff"/><path d="M130.754 105.479l26.735-4.675v-1.899l-27.758 4.967 1.023 1.607z" stroke="#000" stroke-width=".5" stroke-miterlimit="10" stroke-linecap="round" stroke-linejoin="round"/><path d="M132.799 108.401l28.342-4.821-3.652-4.675v1.899l-26.735 4.675 2.045 2.922z" stroke="#000" stroke-width=".5" stroke-miterlimit="10" stroke-linecap="round" stroke-linejoin="round"/><path d="M157.489 100.804l2.338 3.068 1.314-.292-3.652-4.675v1.899z" stroke="#000" stroke-width=".5" stroke-miterlimit="10" stroke-linecap="round" stroke-linejoin="round"/><path d="M171.66 103.58l-47.188 7.89c-3.652.584-12.272 1.607-12.856-1.9-.585-3.652 4.821-5.259 8.473-5.843l47.773-7.89c3.652-.584 10.665-.438 11.249 3.069.584 3.652-3.798 4.09-7.451 4.674z" stroke="#000" stroke-width=".5" stroke-miterlimit="10" stroke-linecap="round" stroke-linejoin="round"/><path d="M166.693 106.064l4.967-.877c5.113-.73 7.597-2.337 7.597-5.405v-.876c-.584-3.653-7.597-3.653-11.249-3.069l-47.773 7.89c-3.506.584-8.473 2.045-8.473 5.405v.584c.584 3.653 5.551 4.675 12.856 3.653l6.574-1.023" stroke="#000" stroke-width=".5" stroke-miterlimit="10" stroke-linecap="round" stroke-linejoin="round"/><path d="M124.034 107.233c.438 1.607-1.023 2.337-2.63 2.776-1.607.438-4.529.438-4.967-1.169-.439-1.607 1.022-2.484 2.629-2.922 1.607-.438 4.529-.292 4.968 1.315zm49.671-8.473c.439 1.606-1.022 2.337-2.629 2.775-1.607.438-4.529.438-4.967-1.169-.439-1.607 1.022-2.483 2.629-2.921 1.607-.439 4.529-.146 4.967 1.314z" stroke="#000" stroke-width=".5" stroke-miterlimit="10" stroke-linecap="round" stroke-linejoin="round"/><path d="M117.898 110.009s-.146-1.461 2.337-1.9c2.484-.438 3.068 1.023 3.068 1.023m44.12-7.451s-.146-1.314 2.192-1.753c2.191-.438 3.36.877 3.36.877m-6.282 5.259c1.899 2.045 2.922 4.383 2.045 5.698-1.168 1.899-5.405 2.922-13.879 4.675-8.473 1.753-16.946 1.899-19.284 1.168-2.337-.73-4.529-5.551-4.529-5.551v-1.753l35.647-5.844v1.607zm-39.445 28.781l26.735-4.675v-1.899l-27.612 4.967.877 1.607z" stroke="#000" stroke-width=".5" stroke-miterlimit="10" stroke-linecap="round" stroke-linejoin="round"/><path d="M129.439 137.767l28.342-4.821-3.798-4.675v1.899l-26.735 4.675 2.191 2.922z" stroke="#000" stroke-width=".5" stroke-miterlimit="10" stroke-linecap="round" stroke-linejoin="round"/><path d="M153.983 130.17l2.337 3.068 1.461-.292-3.798-4.675v1.899z" stroke="#000" stroke-width=".5" stroke-miterlimit="10" stroke-linecap="round" stroke-linejoin="round"/><path d="M168.154 133.091l-47.188 7.889c-3.653.585-12.272 1.607-12.857-1.899-.584-3.652 4.821-5.259 8.474-5.844l47.772-7.889c3.653-.584 10.665-.438 11.25 3.068.73 3.506-3.799 4.091-7.451 4.675z" stroke="#000" stroke-width=".5" stroke-miterlimit="10" stroke-linecap="round" stroke-linejoin="round"/><path d="M163.187 135.575l4.967-.876c5.113-.731 7.597-2.338 7.597-5.406v-.876c-.584-3.653-7.597-3.653-11.249-3.068l-47.773 7.889c-3.506.584-8.473 2.045-8.473 5.405v.585c.584 3.652 5.551 4.675 12.856 3.652l6.574-1.023" stroke="#000" stroke-width=".5" stroke-miterlimit="10" stroke-linecap="round" stroke-linejoin="round"/><path d="M120.527 136.598c.439 1.607-1.022 2.337-2.629 2.776-1.607.438-4.529.438-4.967-1.169-.439-1.607 1.022-2.484 2.629-2.922 1.753-.438 4.529-.292 4.967 1.315zm49.672-8.328c.438 1.607-1.023 2.338-2.63 2.776-1.607.438-4.528.438-4.967-1.169-.438-1.607 1.023-2.483 2.63-2.922 1.753-.438 4.529-.292 4.967 1.315z" stroke="#000" stroke-width=".5" stroke-miterlimit="10" stroke-linecap="round" stroke-linejoin="round"/><path d="M114.391 139.374s-.146-1.461 2.338-1.899c2.483-.439 3.068 1.022 3.068 1.022m44.266-7.451s-.146-1.315 2.192-1.753c2.337-.438 3.36.877 3.36.877m-6.428 5.405c1.899 2.045 2.922 4.383 2.045 5.697-1.169 1.9-5.405 2.922-13.879 4.675-8.473 1.754-16.947 1.9-19.284 1.169-2.338-.73-4.529-5.551-4.529-5.551v-1.753l35.647-5.844v1.607zm15.778-82.981l-.146 2.191 4.529-.73-4.383-1.461z" stroke="#000" stroke-width=".5" stroke-miterlimit="10" stroke-linecap="round" stroke-linejoin="round"/><path d="M178.234 66.91l.585-12.125 4.529-.73-.731 12.418-4.383.438z" stroke="#000" stroke-width=".5" stroke-miterlimit="10" stroke-linecap="round" stroke-linejoin="round"/><path d="M126.371 82.251c-2.776-1.315-4.675-3.506-5.552-6.574-.292-1.315-.584-2.63-.584-4.237 0-9.642 8.62-14.755 21.038-17.093 4.236-.73 37.838-5.698 37.838-5.698l-.146 4.091-.146 1.9v1.022l-.585 11.395-.438 10.519s-21.037 3.214-34.186 5.26" stroke="#000" stroke-width=".5" stroke-miterlimit="10" stroke-linecap="round" stroke-linejoin="round"/><path d="M175.167 43.536s.146.146-.731.146c-1.607.292-4.237.585-7.451 1.169-10.226 1.46-26.15 3.944-28.926 4.383-12.418 2.337-21.038 7.45-21.038 17.093 0 .876 0 1.607.146 2.337.439 2.922 1.607 5.26 3.653 7.013" stroke="#000" stroke-width=".5" stroke-miterlimit="10" stroke-linecap="round" stroke-linejoin="round"/><path d="M117.167 68.664c-.876-1.753-1.461-3.944-1.461-6.428 0-9.642 8.62-14.755 21.038-17.093 2.776-.584 18.115-2.776 28.488-4.383" stroke="#000" stroke-width=".5" stroke-miterlimit="10" stroke-linecap="round" stroke-linejoin="round"/><path d="M166.985 42.66c-10.227 1.46-25.712 3.944-28.488 4.528-12.418 2.338-21.768 7.159-21.768 16.8 0 .877.146 1.754.292 2.777m62.09-18.115l-3.945-5.114" stroke="#000" stroke-width=".5" stroke-miterlimit="10" stroke-linecap="round" stroke-linejoin="round"/><path d="M165.232 40.906l1.753 1.753v2.192m-91.032 56.917c.48-.068.546-2.39.15-5.186-.398-2.796-1.108-5.007-1.587-4.94-.48.069-.546 2.39-.15 5.187.398 2.796 1.108 5.007 1.587 4.939zM61.448 63.514c.479-.068.564-2.26.19-4.897-.375-2.636-1.067-4.718-1.546-4.65-.48.068-.564 2.26-.19 4.897.374 2.636 1.066 4.718 1.546 4.65zm80.701 8.218c.146-.584.146-1.022.146-1.607 0-3.944-3.214-7.158-7.158-7.158-3.945 0-7.159 3.214-7.159 7.158 0 3.215 2.192 5.99 5.114 6.867" stroke="#000" stroke-width=".5" stroke-miterlimit="10" stroke-linecap="round" stroke-linejoin="round"/><path d="M74.508 91.6s49.087-8.619 52.594-9.641c3.506-1.023 6.574-1.754 6.574-3.36 0-1.608-3.945-7.16-3.945-7.89 0-.73-.292-3.36 3.507-5.113 3.944-1.753 5.843.584 5.989 1.023.146.292 3.653 5.99 4.237 8.181.584 2.191 1.315 5.99-.73 9.35-2.046 3.36-4.675 6.72-19.869 9.496-15.194 2.776-46.896 8.181-46.896 8.181M60.045 53.909s30.533-6.136 45.289-8.328c14.755-2.191 18.115.146 21.037 2.338l.146.146m-8.473 6.72c-1.315-.292-3.214-.146-5.406 0-3.506.147-50.986 8.912-50.986 8.912m100.512 6.428a4.383 4.383 0 100-8.765 4.383 4.383 0 000 8.765z" stroke="#000" stroke-width=".5" stroke-miterlimit="10" stroke-linecap="round" stroke-linejoin="round"/><path d="M165.524 63.113c-.73-.584-1.607-.877-2.629-.877-2.338 0-4.383 1.9-4.383 4.383 0 1.023.292 1.9.876 2.63" stroke="#000" stroke-width=".5" stroke-miterlimit="10" stroke-linecap="round" stroke-linejoin="round"/><path d="M163.183 69.392c.322-.014.522-1.398.445-3.091-.076-1.693-.399-3.053-.721-3.039-.323.015-.522 1.399-.446 3.091.076 1.693.399 3.054.722 3.04zM11.98 105.188h1.022s-.876-5.552-.73-5.698c.146-.146 1.315-1.023 1.315-1.023s-.877-5.551-.73-5.99c0-.438 6.866-2.19 7.012-2.045.292.146 2.191 4.821 2.191 4.821s35.063-7.304 36.67-7.743c1.607-.438 5.551-1.168 7.889-3.506 2.337-2.337 2.483-4.09 2.191-7.012-.292-2.776-1.315-5.114-4.529-6.428-3.068-1.461-7.304-2.046-11.833-1.315-4.53.584-18.262 3.214-22.791 3.214s-8.62-1.9-8.62-1.9l-1.753.877s-1.607-3.798-2.191-5.552c-.584-1.753-2.63-2.63-3.945-2.63H11.98c-.73 0-1.315.293-1.9.585l-6.428 4.821 1.17 8.474 7.158 28.05z" stroke="#000" stroke-width=".5" stroke-miterlimit="10" stroke-linecap="round" stroke-linejoin="round"/><path d="M22.06 95.107l1.607 4.675s.146 1.169 1.753 1.169c0 0 10.373-2.046 18.262-3.799 7.89-1.607 13.733-2.776 16.801-3.506 3.068-.73 5.844-2.045 7.305-3.36 1.46-1.315 3.36-4.237 2.045-8.62-.292-1.022-1.023-1.753-1.023-1.753" stroke="#000" stroke-width=".5" stroke-miterlimit="10" stroke-linecap="round" stroke-linejoin="round"/><path d="M69.103 80.644c.584 3.36-.293 5.697-1.607 6.866-1.462 1.315-4.091 2.63-7.305 3.36-3.068.73-9.058 1.753-16.801 3.506a3126.371 3126.371 0 00-18.262 3.799c-1.607-.146-1.753-1.169-1.753-1.169l-.584-2.045M11.98 105.188L8.62 87.364 4.82 73.34l-1.169-4.675" stroke="#000" stroke-width=".5" stroke-miterlimit="10" stroke-linecap="round" stroke-linejoin="round"/><path d="M19.284 71.148c-.584-1.753-3.652-3.36-4.82-3.36h-1.17c-.73 0-1.46.292-2.045.73l-6.428 4.675M8.62 87.51s5.99-4.236 6.135-4.528c0 0 1.9-1.023 3.799-1.023 1.607 0 4.09 1.169 4.529 3.506a2.49 2.49 0 010 1.461l2.922-1.753-5.114-14.901m.146 8.618l2.192 6.575" stroke="#000" stroke-width=".5" stroke-miterlimit="10" stroke-linecap="round" stroke-linejoin="round"/><path d="M21.038 78.89c-.585-1.752-4.091-1.752-4.968-1.606-.876.146-3.214 1.314-3.798 1.753l-4.967 3.652m10.988 5.526c1.272-.218 2.16-1.233 1.984-2.266-.177-1.034-1.352-1.696-2.625-1.478-1.272.217-2.16 1.232-1.983 2.266.176 1.034 1.351 1.695 2.624 1.478zM7.305 71.44l2.776 9.204m35.208 65.45h1.023s-.877-5.552-.73-5.698c.145-.146 1.314-1.022 1.314-1.022s-.877-5.552-.73-5.99c0-.438 6.866-2.192 7.012-2.046.292.147 2.192 4.822 2.192 4.822s35.062-7.305 36.669-7.743c1.607-.439 5.552-1.169 7.89-3.507 2.337-2.337 2.483-4.09 2.19-7.012-.292-2.776-1.314-5.113-4.528-6.428-3.215-1.315-7.305-2.046-11.834-1.315-4.529.73-18.262 3.214-22.79 3.214-4.53 0-8.62-1.899-8.62-1.899l-1.753.584s-1.607-3.798-2.192-5.551c-.584-1.754-2.776-2.338-3.944-2.338h-1.169c-.73 0-1.315.292-1.9.584l-6.427 4.822 1.168 8.473 7.159 28.05z" stroke="#000" stroke-width=".5" stroke-miterlimit="10" stroke-linecap="round" stroke-linejoin="round"/><path d="M55.223 136.013l1.607 4.675s.147 1.169 1.754 1.169c0 0 10.372-2.045 18.261-3.799 7.89-1.607 13.733-2.775 16.801-3.506 3.068-.73 5.844-2.045 7.305-3.36 1.461-1.315 3.36-4.237 2.045-8.62-.292-1.022-1.023-1.753-1.023-1.753" stroke="#000" stroke-width=".5" stroke-miterlimit="10" stroke-linecap="round" stroke-linejoin="round"/><path d="M102.412 121.55c.584 3.36-.293 5.697-1.607 6.866-1.461 1.315-4.091 2.63-7.305 3.36-3.068.731-9.058 1.753-16.8 3.507-7.89 1.607-18.263 3.798-18.263 3.798-1.607-.146-1.753-1.169-1.753-1.169l-.584-2.045m-10.811 10.227l-3.36-17.824-3.799-14.025-1.168-4.675" stroke="#000" stroke-width=".5" stroke-miterlimit="10" stroke-linecap="round" stroke-linejoin="round"/><path d="M52.594 112.054c-.584-1.753-3.652-3.36-4.821-3.36h-1.169c-.73 0-1.46.292-2.045.73l-6.428 4.675m3.798 14.171s5.99-4.236 6.136-4.529c0 0 1.9-1.022 3.798-1.022 1.607 0 4.091 1.168 4.53 3.506a2.49 2.49 0 010 1.461l2.921-1.753-5.113-14.902m.146 8.766l2.191 6.428" stroke="#000" stroke-width=".5" stroke-miterlimit="10" stroke-linecap="round" stroke-linejoin="round"/><path d="M54.347 119.797c-.584-1.753-4.09-1.753-4.967-1.607-.877.146-3.214 1.315-3.799 1.753l-4.967 3.652m10.974 5.381c1.272-.217 2.16-1.232 1.984-2.266-.177-1.034-1.352-1.695-2.625-1.478-1.272.218-2.16 1.233-1.983 2.267.176 1.033 1.351 1.695 2.624 1.477zM40.614 112.2l2.776 9.35" stroke="#000" stroke-width=".5" stroke-miterlimit="10" stroke-linecap="round" stroke-linejoin="round"/></svg>