<svg viewBox="0 0 281 281" fill="none" xmlns="http://www.w3.org/2000/svg"><path opacity=".01" d="M281 0H0v281h281V0z" fill="#fff"/><path d="M140.5 245.875c58.197 0 105.375-47.178 105.375-105.375S198.697 35.125 140.5 35.125 35.125 82.303 35.125 140.5 82.303 245.875 140.5 245.875z" fill="#fff" fill-opacity=".29"/><path d="M270.726 104.256v87.241l-98.592 35.586v-2.261l-3.117 1.12-.154-.066V156.68l-60.964-13.567v5.159l-94.288 20.482-.066-.022-3.271-1.208V91.632l94.245-20.153 161.904 31.92 4.303.857z" fill="#fff"/><path d="M104.08 147.262l-93.806 20.262V91.632l94.223-20.153-.417 75.783z" stroke="#000" stroke-width=".5" stroke-linecap="round" stroke-linejoin="round"/><path d="M13.545 117.405V92.861l1.142-.24h.021m-1.163 29.482v46.673l.066-.022 94.288-20.482v-8.43l-.043-23.205v-3.271l-.022-11.503v-3.271l-.066-23.183" stroke="#000" stroke-width=".5" stroke-linecap="round" stroke-linejoin="round"/><path d="M104.497 71.48L10.274 91.632l161.86 36.047 98.592-23.423L104.497 71.48z" stroke="#000" stroke-width=".5" stroke-linecap="round" stroke-linejoin="round"/><path d="M17.76 93.3l86.759-18.55 3.249.659 151.125 29.79h.022l4.281.834 4.259.856 3.271.637-3.271.768-50.075 11.899h-.022l-7.508 1.778-37.715 8.979m-3.272-.746l-61.007-13.567-3.337-.746-33.61-7.486-7.487-1.669-49.877-11.108" stroke="#000" stroke-width=".5" stroke-linecap="round" stroke-linejoin="round"/><path d="M168.863 153.409l-60.964-13.567-3.38-.769-86.76-19.297-4.214-.943-3.271-.725 3.27-.702 49.878-10.67 7.487-1.602 33.61-7.179 3.315.637 97.713 19.275h.022l4.281.856 7.508 1.471 50.097 9.879 3.271.636-7.53 1.8-91.062 21.624" stroke="#000" stroke-width=".5" stroke-linecap="round" stroke-linejoin="round"/><path d="M168.863 156.679l-60.964-13.567-3.38-.768-90.974-20.241-3.271-.724 3.27-.703 4.216-.9 53.148-11.372 7.486-1.602 26.125-5.576 3.315.636 90.205 17.804h.022l4.281.834 7.508 1.471 53.346 10.538 7.53 1.471-3.271.768-95.321 22.656" stroke="#000" stroke-width=".5" stroke-linecap="round" stroke-linejoin="round"/><path d="M172.134 127.68v99.404l98.592-35.586v-87.242l-98.592 23.424z" stroke="#000" stroke-width=".5" stroke-linecap="round" stroke-linejoin="round"/><path d="M267.455 134.748v55.651l-.351.132-94.97 34.291-3.117 1.119-.154.044v-69.306m36.706-38.813h-.022m61.908 12.206v-21.777m-8.54-3.096h-.022m-60.832 14.467h-.022m-29.176 33.743v-23.205m101.863 61.293l-3.644-.966m-159.183-42.259l-3.819-1.01" stroke="#000" stroke-width=".5" stroke-linecap="round" stroke-linejoin="round"/><path d="M172.134 227.083l-3.117-1.141-.154-.066M13.61 168.754l-.065-.022-3.271-1.208" stroke="#000" stroke-width=".5" stroke-linecap="round" stroke-linejoin="round"/></svg>