<svg width="188" height="187" fill="none" xmlns="http://www.w3.org/2000/svg"><path d="M94.063 163.625c38.728 0 70.125-31.396 70.125-70.125s-31.397-70.125-70.125-70.125c-38.73 0-70.126 31.396-70.126 70.125s31.396 70.125 70.126 70.125z" fill="#788CA4"/><path d="M6.334 84.844V58.4l104.895 10.555 72.499-9.679V85.72l-72.499-5.04L6.334 84.844z" fill="#fff"/><path d="M111.229 68.956v11.76m0-11.76L6.334 58.401v26.443l104.895-4.164V68.956zm0 0l72.499-9.679V85.72l-72.499-5.04V68.956z" stroke="#000" stroke-width=".5" stroke-miterlimit="10" stroke-linecap="round" stroke-linejoin="round"/><path d="M46.802 141.82v-40.906L7.722 88.131v33.054l-1.388-.84V85.1l56.32-2.265 18.078-.73 31.009-1.242 20.672 1.388 12.929.876 17.751 1.206 20.708 1.387-12.527 4.493v21.95l-24.982-5.296-16.545-3.506-16.545-3.506-16.363 4.31-14.463 3.798-4.821 1.279v20.27l-27.539 14.135-3.214-1.827z" fill="#fff"/><path d="M50.09 143.72l-3.288-1.863v-40.906L7.722 88.168l-.402 32.981-.986-.548V85.1m0 0l43.718 13.806M6.334 85.1l56.32-2.265m-12.602 16.07v44.778m0-44.777l27.54-4.93m93.682-3.763l12.454-4.492-20.708-1.388m8.254 5.88l-24.982-2.483m24.982 2.483v7.999m0 0v11.066m0-11.066l-58.036-8.875m.037 10.591l16.545 3.507m-16.545-3.507l-16.363 4.31m16.363-4.31V89.337m-35.647 19.941v20.271l-27.539 14.134m27.539-34.405l4.82-1.278 14.464-3.798V91.199l16.363-1.862m-35.647 19.941v-15.34m0 0l-28.233-4.601L82.45 86.78m-4.821 7.159l4.82-.694m30.827-8.839l16.545 1.643m-16.545-1.643l-16.363 1.278m16.363-1.278v4.93m0-4.93l19.101-2.191-20.672-1.388-31.008 1.242m16.216 3.615L82.45 86.817m14.463-1.133v5.552m0-5.552l-16.18-3.579m65.596 5.588l16.692-3.397-17.751-1.205m1.059 4.602v19.211m0-19.21l-16.545-1.645m15.486-2.958l-15.486 2.959m15.486-2.959l-12.929-.876m13.988 24.689l24.982 5.296v-2.885m-24.982-2.411l-16.545-3.506V86.049m-47.37 7.196V86.78l-19.76-3.981 18.08-.73m1.68 25.968V93.281" stroke="#000" stroke-width=".5" stroke-miterlimit="10" stroke-linecap="round" stroke-linejoin="round"/><path d="M7.32 87.656l7.086 2.41 32.396 10.52v34.332l-32.396-15.706-7.086 1.9V87.656z" fill="#fff"/><path d="M14.406 90.067l32.396 10.519v34.332l-32.396-15.705m0-29.146l-7.086-2.41v33.455l7.086-1.899V90.067zm0 0v29.146-29.146z" stroke="#000" stroke-width=".5" stroke-miterlimit="10" stroke-linecap="round" stroke-linejoin="round"/><path d="M85.297 69.577v-14.17l3.068-2.156 23.119 3.507 10.373-2.338 10.373-2.337 3.25 2.264v13.404l-23.996 3.324-26.187-1.498z" fill="#fff"/><path d="M85.297 69.577v-14.17l3.068-2.156v7.013m-3.068 9.313l26.224 1.498 23.996-3.324m-50.22 1.826l3.068-2.337m0 0l23.119 1.826m-23.12-1.826v-7.013l23.12 2.667m20.745-10.811l3.251 2.264v13.404l-3.251-1.717m0-13.952v13.952m0-13.952l-10.372 2.338v13.148l10.372-1.534m-20.708-9.277l-23.12-3.506m23.12 3.507v6.172m0-6.172l10.372-2.338m0 13.112l-10.372 1.534v-6.172l20.745-3.872" stroke="#000" stroke-width=".5" stroke-miterlimit="10" stroke-linecap="round" stroke-linejoin="round"/><path d="M74.487 65.523v-11.87l3.397-2.557 5.77 1.534v12.016l11.36.73v1.535l-13.076 3.214-13.258-1.023v-1.351l5.807-2.228z" fill="#fff"/><path d="M74.487 65.523v-11.87l3.397-2.557m-3.397 14.427l3.397-1.205m-3.397 1.205l-5.77 2.191v1.352m9.167-17.97v13.222m0-13.222l5.77 1.534v12.016m-5.77-.328l5.77.292 11.36.73v1.534m-17.13-2.556v1.534l17.166 1.022m0 .037l-13.075 3.214-13.258-1.023 9.167-3.214" stroke="#000" stroke-width=".5" stroke-miterlimit="10" stroke-linecap="round" stroke-linejoin="round"/><path d="M32.156 67.24V48.138l7.634-4.821 17.458 3.287 14.39 2.74V67.24l-5.77 1.899-33.712-1.9z" fill="#fff"/><path d="M32.156 67.24V48.138l7.634-4.821M32.156 67.24l33.711 1.899 5.771-1.9m-39.482 0L39.79 64.5m0-21.183l17.458 3.287M39.79 43.317v10.592l31.848 4.383m0 8.948l-14.39-1.242V46.604m14.39 20.636v-8.948m0 0v-8.949l-14.39-2.739m0 19.357L39.79 64.464V53.872m6.026 9.459l5.515.512m11.323.876l4.31.512M45.816 52.557l5.515.877m11.323 1.57l4.31.694m35.902 37.035l3.251-.511m-3.251-5.04l3.251-.366m12.564.366l3.433.365m-3.433 4.675l3.433.511m13.404 2.265l3.433.51m-3.433-6.427l3.433.365m16.509 8.656l3.433.511m-3.433-7.268l3.433.365M98.228 66.655l3.433.365m-3.433-7.158l3.433.365m13.075.658l1.899-.366m-1.388 6.83l1.9-.365m8.071-8.327l2.228-.512m-2.228 7.634l2.594-.512" stroke="#000" stroke-width=".5" stroke-miterlimit="10" stroke-linecap="round" stroke-linejoin="round"/></svg>