<svg width="187" height="174" fill="none" xmlns="http://www.w3.org/2000/svg"><path opacity=".01" d="M187 .148H0v187h187v-187z" fill="#fff"/><path d="M93.5 163.773c38.729 0 70.125-31.396 70.125-70.125 0-38.728-31.396-70.125-70.125-70.125S23.375 54.92 23.375 93.648s31.396 70.125 70.125 70.125z" fill="#788CA4"/><path d="M180.164 69.529v58.057l-65.611 23.682v-1.505l-2.075.745-.102-.043v-46.049l-40.57-9.029v3.433L9.059 112.451l-.044-.015-2.177-.803V61.128l62.718-13.411L177.3 68.959l2.864.57z" fill="#fff"/><path d="M69.264 98.148L6.838 111.633V61.128L69.54 47.717l-.277 50.431z" stroke="#000" stroke-width=".5" stroke-linecap="round" stroke-linejoin="round"/><path d="M9.014 78.28V61.945l.76-.16h.014m-.774 19.621v31.059l.043-.014 62.748-13.63V93.21l-.03-15.442v-2.177l-.014-7.655v-2.177l-.044-15.428" stroke="#000" stroke-width=".5" stroke-linecap="round" stroke-linejoin="round"/><path d="M69.541 47.717L6.838 61.128l107.715 23.989 65.611-15.588L69.541 47.717z" stroke="#000" stroke-width=".5" stroke-linecap="round" stroke-linejoin="round"/><path d="M11.818 62.239l57.737-12.345 2.162.438 100.571 19.825h.014l2.849.555 2.834.57 2.177.423-2.177.512-33.324 7.918h-.014l-4.997 1.183-25.099 5.976m-2.176-.497l-40.6-9.029-2.22-.496-22.367-4.982-4.982-1.11-33.192-7.393" stroke="#000" stroke-width=".5" stroke-linecap="round" stroke-linejoin="round"/><path d="M112.376 102.239l-40.57-9.029-2.25-.511L11.82 79.857l-2.805-.628-2.177-.482 2.177-.468 33.192-7.1 4.982-1.066 22.367-4.778 2.206.424 65.026 12.827h.015l2.849.57 4.996.979 33.339 6.574 2.177.424-5.012 1.198-60.599 14.39" stroke="#000" stroke-width=".5" stroke-linecap="round" stroke-linejoin="round"/><path d="M112.376 104.415l-40.57-9.028-2.25-.511-60.541-13.47-2.177-.482 2.177-.468 2.805-.599 35.369-7.567 4.982-1.067 17.385-3.71 2.206.423 60.03 11.848h.014l2.849.555 4.997.98 35.5 7.012 5.012.978-2.177.512-63.434 15.077" stroke="#000" stroke-width=".5" stroke-linecap="round" stroke-linejoin="round"/><path d="M114.553 85.117v66.151l65.61-23.682V69.528l-65.61 15.588z" stroke="#000" stroke-width=".5" stroke-linecap="round" stroke-linejoin="round"/><path d="M177.986 89.82v37.036l-.234.087-63.2 22.82-2.075.745-.102.029v-46.121m24.427-25.83h-.015m41.199 8.123V72.216m-5.682-2.059h-.015m-40.483 9.627h-.015m-19.416 22.455V86.797m67.788 40.789l-2.425-.643M71.806 98.82l-2.542-.672" stroke="#000" stroke-width=".5" stroke-linecap="round" stroke-linejoin="round"/><path d="M114.552 151.268l-2.075-.76-.102-.044M9.059 112.451l-.044-.015-2.177-.803" stroke="#000" stroke-width=".5" stroke-linecap="round" stroke-linejoin="round"/></svg>