<svg width="187" height="187" fill="none" xmlns="http://www.w3.org/2000/svg"><path d="M93.5 163.625c38.729 0 70.125-31.396 70.125-70.125S132.229 23.375 93.5 23.375 23.375 54.771 23.375 93.5s31.396 70.125 70.125 70.125z" fill="#788CA4"/><path d="M91.162 148.979v-.511l1.863-.329V31.045l-18.627-3.506-46.421 7.742v105.59l1.314.292.037 4.164c-.037.292 0 .584.037.876.328 1.571 1.79 2.63 3.287 2.338 1.497-.292 2.447-1.826 2.118-3.433-.292-1.534-1.717-2.594-3.178-2.338v-1.096l15.596 3.507.219.036 23.266 5.223v.584l.036 4.456c-.037.329 0 .658.073.986.365 1.753 2.009 2.922 3.652 2.593 1.68-.328 2.74-2.045 2.374-3.834-.328-1.717-1.899-2.886-3.542-2.63v-1.607l1.168.255 14.537-2.483v2.593c-.037.292 0 .548.036.84.292 1.534 1.753 2.557 3.178 2.265 1.46-.293 2.374-1.79 2.045-3.324-.292-1.388-1.644-2.411-3.068-2.155zm-16.764-5.04l-26.845-6.063-.876-.183.11-20.709 27.61 3.434v23.521zm0-27.831l-27.575-3.214.11-24.252 27.465.804v26.662zm0-27.794l-27.21-.767h-.256l.11-24.252 27.32-2.045v27.064h.036zm0-29.584l-27.32 1.826.11-22.535 27.21-4.127V58.73z" fill="#fff"/><path d="M155.262 162.712v-.621l2.227-.402V21.184l-22.352-4.2-55.735 9.276v126.773l1.57.365.037 4.968v.036c-.036.365 0 .694.073 1.059.402 1.9 2.155 3.141 3.945 2.776 1.79-.365 2.922-2.191 2.557-4.091-.366-1.862-2.082-3.104-3.799-2.812v-1.351l18.737 4.2.255.073 27.904 6.282v.694l.037 5.332c-.037.366 0 .767.073 1.169.438 2.119 2.41 3.543 4.419 3.141 2.009-.402 3.287-2.447 2.849-4.602-.402-2.082-2.301-3.469-4.273-3.141v-1.935l1.388.328 17.458-2.995v3.105c-.037.328 0 .694.073 1.022.365 1.863 2.082 3.068 3.835 2.703 1.753-.365 2.849-2.118 2.483-3.981-.438-1.716-2.045-2.922-3.761-2.666zm-20.125-6.026l-32.214-7.269-1.059-.219.11-24.872 33.127 4.127v28.233h.036zm0-33.419l-33.127-3.835.146-29.11 32.945.95v31.995h.036zm0-33.346l-32.652-.95h-.292l.146-29.11 32.798-2.446V89.92zm0-35.501l-32.798 2.191.146-27.063 32.652-4.968v29.84z" fill="#fff"/><path d="M74.398 27.539v123.778l18.627-3.178V31.045l-18.627-3.506zm0 0v123.778l-1.169-.256-2.593-.585-23.229-5.222-.22-.037-15.631-3.506-2.301-.511-1.278-.293V35.281l46.42-7.742z" stroke="#000" stroke-width=".5" stroke-miterlimit="10" stroke-linecap="round" stroke-linejoin="round"/><path d="M47.188 38.02l45.837-6.975-18.627-3.506-46.421 7.742 19.21 2.74zm45.837 110.119l-1.388.219-2.374.402-14.865 2.557-1.169-.256-2.593-.585-23.229-5.222-.22-.037-15.631-3.506-2.301-.511-1.278-.293 3.36-.584 14.134-2.447 1.206-.219.876.219 26.845 6.063 18.627 4.2z" stroke="#000" stroke-width=".5" stroke-miterlimit="10" stroke-linecap="round" stroke-linejoin="round"/><path d="M47.188 38.02l-.511 99.636-18.7 3.251V35.281l19.21 2.74zm45.837-6.975l-18.627-3.506v123.778l18.627-3.178V31.045z" stroke="#000" stroke-width=".5" stroke-miterlimit="10" stroke-linecap="round" stroke-linejoin="round"/><path d="M27.977 61.834l46.42-3.105 18.628 1.133-45.983 3.433-19.065-1.461zm0 26.26l19.21-.584 45.838 1.351-18.627.584-46.421-1.35zm0 26.516l18.81-1.716 46.238 5.368-18.627 2.119-46.421-5.771z" stroke="#000" stroke-width=".5" stroke-miterlimit="10" stroke-linecap="round" stroke-linejoin="round"/><path d="M92.185 154.567c-1.46.292-2.885-.731-3.177-2.265a2.199 2.199 0 01-.037-.84c.11-1.205.95-2.228 2.119-2.447.036 0 .073 0 .11-.036 1.424-.219 2.775.767 3.067 2.264.292 1.534-.62 3.032-2.082 3.324z" stroke="#000" stroke-width=".5" stroke-miterlimit="10"/><path d="M91.162 148.431v.511h-.11c-1.169.22-2.009 1.242-2.118 2.448v-2.594l2.228-.365zm-16.765 10.702c-1.68.328-3.323-.841-3.652-2.594-.073-.328-.073-.657-.073-.986.11-1.388 1.06-2.556 2.41-2.812.037 0 .074 0 .11-.037 1.644-.255 3.214.877 3.543 2.63.401 1.753-.658 3.433-2.338 3.799z" stroke="#000" stroke-width=".5" stroke-miterlimit="10"/><path d="M73.228 152.668c-.036 0-.072 0-.11.036-1.35.256-2.3 1.461-2.41 2.813l-.036-4.456v-.584l2.556.584v1.607zm-40.613-4.091c-1.497.292-2.958-.73-3.287-2.337a2.393 2.393 0 01-.036-.877c.11-1.205.986-2.264 2.154-2.483h.11c1.461-.22 2.849.803 3.178 2.337.328 1.534-.621 3.068-2.119 3.36z" stroke="#000" stroke-width=".5" stroke-miterlimit="10"/><path d="M31.592 142.807c-.037 0-.073 0-.11.036-1.205.256-2.045 1.278-2.154 2.484l-.037-4.164 2.301.511v1.133zm16.888 1.661c1.344-.271 2.201-1.645 1.915-3.068-.287-1.424-1.61-2.359-2.955-2.088-1.344.271-2.202 1.645-1.915 3.069.287 1.423 1.61 2.358 2.954 2.087zm-3.01-2.903v-3.689m2.046 1.424v-1.424" stroke="#000" stroke-width=".5" stroke-miterlimit="10"/><path d="M135.137 16.983v148.578l22.352-3.835V21.184l-22.352-4.2zm0 0v148.578l-1.424-.329-3.068-.694-27.904-6.282-.256-.036-18.736-4.201-2.776-.621-1.57-.365V26.26l55.734-9.277z" stroke="#000" stroke-width=".5" stroke-miterlimit="10" stroke-linecap="round" stroke-linejoin="round"/><path d="M102.485 29.547l55.004-8.363-22.352-4.2-55.735 9.276 23.083 3.287zm55.004 132.179l-1.643.292-2.849.475-17.86 3.068-1.424-.329-3.068-.694-27.904-6.282-.256-.037-18.736-4.2-2.776-.621-1.57-.365 4.053-.694 16.947-2.922 1.461-.255 1.059.219v.036l32.214 7.268 22.352 5.041z" stroke="#000" stroke-width=".5" stroke-miterlimit="10" stroke-linecap="round" stroke-linejoin="round"/><path d="M102.485 29.547l-.621 119.615-22.462 3.871V26.26l23.083 3.287zm55.004-8.363l-22.352-4.2V165.56l22.352-3.835V21.184z" stroke="#000" stroke-width=".5" stroke-miterlimit="10" stroke-linecap="round" stroke-linejoin="round"/><path d="M79.402 58.145l55.735-3.725 22.352 1.351-55.15 4.09-22.937-1.716zm0 31.52l23.083-.694 55.004 1.57-22.352.731-55.735-1.607zm0 31.812l22.608-2.082 55.479 6.465-22.352 2.556-55.735-6.939z" stroke="#000" stroke-width=".5" stroke-miterlimit="10" stroke-linecap="round" stroke-linejoin="round"/><path d="M156.502 169.433c-1.753.365-3.433-.877-3.835-2.703-.073-.329-.073-.694-.073-1.023.109-1.424 1.132-2.666 2.52-2.958.036 0 .073 0 .109-.037 1.681-.255 3.324.913 3.689 2.739.439 1.863-.694 3.616-2.41 3.982z" stroke="#000" stroke-width=".5" stroke-miterlimit="10"/><path d="M155.261 162.091v.621c-.037 0-.073 0-.11.037-1.424.292-2.411 1.497-2.52 2.958v-3.141l2.63-.475zm-20.125 12.82c-2.009.402-3.981-.986-4.42-3.141a4.311 4.311 0 01-.073-1.169c.146-1.643 1.279-3.068 2.922-3.396.037 0 .11 0 .146-.037 1.972-.292 3.835 1.059 4.273 3.141.439 2.155-.84 4.2-2.848 4.602z" stroke="#000" stroke-width=".5" stroke-miterlimit="10"/><path d="M133.712 167.168c-.037 0-.11 0-.146.036-1.607.329-2.776 1.754-2.922 3.397l-.037-5.332v-.694l3.068.694.037 1.899zm-48.723-4.894c-1.79.365-3.543-.877-3.945-2.776-.073-.365-.11-.731-.073-1.059v-.037c.147-1.461 1.17-2.703 2.593-2.995.037 0 .11 0 .147-.036 1.753-.292 3.433.949 3.798 2.812.438 1.899-.73 3.725-2.52 4.091z" stroke="#000" stroke-width=".5" stroke-miterlimit="10"/><path d="M83.748 155.334c-.036 0-.11 0-.146.037-1.424.292-2.447 1.534-2.593 2.995l-.036-4.968 2.775.621v1.315zm20.27 1.943c1.601-.323 2.622-1.963 2.28-3.663-.343-1.701-1.919-2.818-3.521-2.495-1.602.323-2.622 1.963-2.28 3.663.343 1.701 1.919 2.818 3.521 2.495zm-3.579-3.44v-4.42m2.448 1.68v-1.716" stroke="#000" stroke-width=".5" stroke-miterlimit="10"/></svg>