<svg width="187" height="187" fill="none" xmlns="http://www.w3.org/2000/svg"><path d="M93.5 163.625c38.729 0 70.125-31.396 70.125-70.125S132.229 23.375 93.5 23.375 23.375 54.771 23.375 93.5s31.396 70.125 70.125 70.125z" fill="#788CA4"/><path d="M28.89 31.702V163.99l22.17-3.506 42.879-6.611 1.826-.256 31.702-4.894 36.049-5.515.511-89.482L28.891 31.702z" fill="#fff"/><path d="M127.431 148.723l36.085-5.515.511-89.482L28.891 31.702v132.325l22.17-3.543V35.318" stroke="#000" stroke-width=".5" stroke-miterlimit="10" stroke-linecap="round" stroke-linejoin="round"/><path d="M93.94 153.873V42.293l33.491 5.48v100.949l-76.37 11.761M95.766 42.586v111.032M51.06 102.12h-5.552v5.113h5.551v-5.113zm9.606 3.177v1.936h-9.605v-5.113h9.605v1.899" stroke="#000" stroke-width=".5" stroke-miterlimit="10" stroke-linecap="round" stroke-linejoin="round"/><path d="M65.232 105.297H54.64a.655.655 0 01-.658-.658c0-.365.293-.657.658-.657h10.592c.365 0 .657.292.657.657a.68.68 0 01-.657.658zM93.94 46.166l-4.383-.548V41.6l4.382.694v3.872zM89.117 154.64v-4.127l4.821-.548v3.908l-4.82.767z" stroke="#000" stroke-width=".5" stroke-miterlimit="10" stroke-linecap="round" stroke-linejoin="round"/></svg>