<svg viewBox="0 0 188 187" fill="none" xmlns="http://www.w3.org/2000/svg"><path d="M94.063 163.625c38.728 0 70.125-31.396 70.125-70.125s-31.397-70.125-70.125-70.125c-38.73 0-70.126 31.396-70.126 70.125s31.396 70.125 70.126 70.125z" fill="#788CA4"/><path d="M150.638 32.323v117.35l-32.689 12.454-80.46-10.847V30.095l80.46-5.15 32.689 7.378z" fill="#fff"/><path d="M117.986 162.055l-80.498-10.848V30.022l80.498-5.15v137.183z" stroke="#000" stroke-width=".5" stroke-miterlimit="10"/><path d="M42.565 85.392h-1.096v18.59h1.096v-18.59zm108.071 64.245l-32.652 12.418V24.873l32.652 7.377v117.387zm-78.195 6.282V27.794" stroke="#000" stroke-width=".5" stroke-miterlimit="10"/><path d="M37.488 151.207l39.3-9.533 73.85 7.962M68.24 35.062l-.328-.036m-9.497-1.57l-16.07-2.63-1.06-.183-3.762-.62m39.264 6.464l-6.318-1.06m6.318 106.247V36.487m73.85-4.237l-73.85 4.237" stroke="#000" stroke-width=".5" stroke-miterlimit="10"/><path d="M41.952 34.365c.969-.195 1.586-1.187 1.38-2.215-.208-1.028-1.161-1.703-2.13-1.508-.97.195-1.587 1.187-1.38 2.215.207 1.028 1.16 1.703 2.13 1.508zm.041 5.586c.969-.195 1.586-1.187 1.38-2.215-.208-1.028-1.161-1.704-2.13-1.508-.97.195-1.587 1.187-1.38 2.215.208 1.028 1.16 1.703 2.13 1.508zm-2.203-7.263v5.188m1.495-3.507v1.826m29.141-4.521c.194-1.03-.436-2.015-1.408-2.197-.97-.183-1.916.504-2.11 1.535-.194 1.03.436 2.014 1.407 2.197.972.183 1.916-.504 2.11-1.535zm.041 5.53c.194-1.03-.436-2.015-1.408-2.198-.97-.183-1.916.505-2.11 1.535-.194 1.031.436 2.015 1.407 2.198.972.183 1.916-.504 2.11-1.535z" stroke="#000" stroke-width=".5" stroke-miterlimit="10"/><path d="M70.432 31.447v1.68l.036 2.228v1.278m-1.498-3.47v1.863m45.218-4.2l3.798-.183v2.009l-3.798.182m-2.997.146l-31.922 1.498m31.85-3.542l-31.885 1.533m-3.032.146l-5.77.292m-28.086 1.315h.036l25.457-1.205m-25.823 3.251l26.954-1.315m7.27-.329l-5.771.292m-30.643 1.461l-2.338.11v-2.045l2.301-.11m39.717-.455c.194-1.03-.436-2.014-1.407-2.197-.972-.183-1.917.504-2.11 1.535-.195 1.03.435 2.014 1.406 2.197.972.183 1.916-.504 2.11-1.535z" stroke="#000" stroke-width=".5" stroke-miterlimit="10"/><path d="M114.412 32.208c.194-1.03-.436-2.014-1.407-2.197-.972-.183-1.916.504-2.11 1.535-.195 1.03.435 2.014 1.407 2.197.971.183 1.916-.504 2.11-1.535zm3.574 10.598h-4.273v6.5h4.273v-6.5zm0 98.868h-4.273v6.501h4.273v-6.501z" stroke="#000" stroke-width=".5" stroke-miterlimit="10"/><path d="M119.664 49.636l-1.68-.33v-6.5l1.68.328v6.502zm0 97.882l-1.68.621v-6.464l1.68-.658v6.501z" stroke="#000" stroke-width=".5" stroke-miterlimit="10"/></svg>