<svg width="188" height="187" fill="none" xmlns="http://www.w3.org/2000/svg"><path d="M93.6 163.625c38.729 0 70.125-31.396 70.125-70.125S132.329 23.375 93.6 23.375c-38.73 0-70.125 31.396-70.125 70.125S54.87 163.625 93.6 163.625z" fill="#788CA4"/><path d="M153.133 152.485l3.397.512v-2.995l-28.233-4.493v3.178l2.118.329 22.718 3.469z" fill="#fff"/><path d="M143.016 131.959l-14.719 13.55 28.233 4.493 9.167-15.413-22.681-2.63z" fill="#fff"/><path d="M156.529 152.997l9.168-15.158v-3.25l-9.168 15.413v2.995zm-51.863-24.727l-1.717-.182v-2.886l25.347 2.886v2.885l-3.506-.402-20.124-2.301zm38.131-10.007l-14.5 9.825v2.885l14.5-10.008v-2.702zm-21.586-1.607l21.585 1.607-14.5 9.825-25.347-2.886 18.262-8.546zm-40.102-7.122l-1.498-.146v-2.813l23.339 1.717v3.068l-3.47-.292-18.371-1.534zm21.841-8.51l-23.339 5.551 23.339 1.717 18.262-5.698-18.262-1.57z" fill="#fff"/><path d="M102.949 111.36l18.262-6.282v-2.484l-18.262 5.698v3.068zM78.333 93.536l1.826.11v-2.703l-14.427-.584v2.593l1.023.037 11.578.547z" fill="#fff"/><path d="M101.926 88.35v2.52l-21.768 2.776v-2.703l21.768-2.593z" fill="#fff"/><path d="M84.286 88.022l-18.554 2.337 14.427.584 21.768-2.593-17.64-.328zM47.105 74.91v2.52H64.09v-2.594l-16.983.073z" fill="#fff"/><path d="M78.551 74.836v2.155l-14.463.439v-2.594H78.55zM52.328 62.273h1.022V59.57H39.873v2.703h12.454zm-19.138.877l6.683-3.58v2.703l-6.683 3.104v-2.228z" fill="#fff"/><path d="M52.328 62.273h1.022l-.876.438-3.141 1.643-1.972 1.023H33.19l6.683-3.104h12.455zM29.83 144.487v6.501l2.264 1.717v-6.757l-2.264-1.461z" fill="#fff"/><path d="M56.857 145.437v6.355l-24.763.913v-6.757l24.763-.511zm100.915 17.275v7.816L56.857 151.792v-6.355l100.915 17.275z" fill="#fff"/><path d="M159.196 160.74l-1.425 1.972v7.816l1.425-2.009v-7.779z" fill="#fff"/><path d="M29.83 144.487l27.027-.511 102.339 16.764-1.424 1.972-100.915-17.275-24.763.511-2.264-1.461z" fill="#fff"/><path d="M157.151 51.535v108.839l-26.004-4.236-1.461-.219-3.105-.512-68.956-11.286.256-66.691v-2.557l.146-41.82.036-11.139h61.834l37.254 29.62zM55.98 21.914v122.098l-23.448.438c.33-5.624.293-11.139-.073-16.545-.95-13.842-4.09-27.027-8.802-39.445a80.905 80.905 0 00-1.643-4.127V21.914H55.98z" fill="#fff"/><path d="M131.51 153.764a2.52 2.52 0 100-5.04 2.52 2.52 0 000 5.04zm19.76 2.885a2.52 2.52 0 100-5.04 2.52 2.52 0 000 5.04zm-45.473-23.631a2.52 2.52 0 100-5.041 2.52 2.52 0 000 5.041zm17.497 2.046a2.521 2.521 0 10-.002-5.042 2.521 2.521 0 00.002 5.042zm-40.871-21.439a2.265 2.265 0 100-4.53 2.265 2.265 0 000 4.53zm15.414 1.314a2.264 2.264 0 100-4.529 2.264 2.264 0 000 4.529zm-29.73-18.225a2.118 2.118 0 100-4.236 2.118 2.118 0 000 4.236zm8.838.548a2.118 2.118 0 100-4.237 2.118 2.118 0 000 4.237zm-34.223-32.36a1.863 1.863 0 100-3.725 1.863 1.863 0 000 3.725zm7.926 0a1.863 1.863 0 100-3.725 1.863 1.863 0 000 3.725z" fill="#fff"/><path d="M130.781 148.87v-1.973l3.799.658v2.082l-3.799-.767zm20.489 2.775v-1.534l3.469.512v2.081l-3.469-1.059zm-46.42-23.448v-1.972l3.761.438v2.046l-3.761-.512zm18.041 1.899v-1.789l4.017.401v2.082l-4.017-.694zm-41.198-20.891v-1.534l3.434.292v1.899l-3.434-.657zm16.143 1.169v-1.278l3.506.255v1.9l-3.506-.877zm-30.424-17.86v-1.351l3.324.146v1.899l-3.324-.694zm8.656.73v-1.79l3.214.147v2.008l-3.214-.365zM42.065 61.286v-.913h3.104l.073 1.9-3.177-.987zm7.413.293v-1.242h2.886v1.936l-2.886-.694z" fill="#fff"/><path d="M149.954 152.011l-16.727-2.594m19.906 3.068l3.397.512v-2.995l-28.233-4.493v3.178l2.118.329" stroke="#000" stroke-width=".5" stroke-miterlimit="10" stroke-linecap="round" stroke-linejoin="round"/><path d="M143.016 131.959l-14.719 13.55 28.233 4.493 9.167-15.413-22.681-2.63z" stroke="#000" stroke-width=".5" stroke-miterlimit="10" stroke-linecap="round" stroke-linejoin="round"/><path d="M156.529 152.997l9.168-15.158v-3.25l-9.168 15.413v2.995zm-34.294-22.718l-14.829-1.68m-2.74-.329l-1.717-.182v-2.886l25.347 2.886v2.885l-3.506-.402m18.007-12.308l-14.5 9.825v2.885l14.5-10.008v-2.702zm-21.586-1.607l21.585 1.607-14.5 9.825-25.347-2.886 18.262-8.546zm-40.102-7.122l-1.498-.146v-2.813l23.339 1.717v3.068l-3.47-.292m-2.996-.256l-12.418-1.022m18.884-8.766l-23.339 5.551 23.339 1.717 18.262-5.698-18.262-1.57z" stroke="#000" stroke-width=".5" stroke-miterlimit="10" stroke-linecap="round" stroke-linejoin="round"/><path d="M102.949 111.36l18.262-6.282v-2.484l-18.262 5.698v3.068zM75.74 93.427l-6.136-.292m8.729.401l1.826.11v-2.703l-14.427-.584v2.593l1.023.037" stroke="#000" stroke-width=".5" stroke-miterlimit="10" stroke-linecap="round" stroke-linejoin="round"/><path d="M101.926 88.35v2.52l-21.768 2.776v-2.703l21.768-2.593z" stroke="#000" stroke-width=".5" stroke-miterlimit="10" stroke-linecap="round" stroke-linejoin="round"/><path d="M84.286 88.022l-18.554 2.337 14.427.584 21.768-2.593-17.64-.328zM47.105 74.91v2.52H64.09v-2.594l-16.983.073z" stroke="#000" stroke-width=".5" stroke-miterlimit="10" stroke-linecap="round" stroke-linejoin="round"/><path d="M78.551 74.836v2.155l-14.463.439v-2.594H78.55zm-29.62-12.563h-4.529m7.926 0h1.022V59.57H39.873v2.703h1.169m-7.852.877l6.683-3.58v2.703l-6.683 3.104v-2.228zm15.741-.877h-4.529" stroke="#000" stroke-width=".5" stroke-miterlimit="10" stroke-linecap="round" stroke-linejoin="round"/><path d="M52.328 62.273h1.022l-.876.438-3.141 1.643-1.972 1.023H33.19l6.683-3.104h1.169M29.83 144.487v6.501l2.264 1.717v-6.757l-2.264-1.461z" stroke="#000" stroke-width=".5" stroke-miterlimit="10" stroke-linecap="round" stroke-linejoin="round"/><path d="M56.857 145.437v6.355l-24.763.913v-6.757l24.763-.511zm100.915 17.275v7.816L56.857 151.792v-6.355l100.915 17.275z" stroke="#000" stroke-width=".5" stroke-miterlimit="10" stroke-linecap="round" stroke-linejoin="round"/><path d="M159.196 160.74l-1.425 1.972v7.816l1.425-2.009v-7.779z" stroke="#000" stroke-width=".5" stroke-miterlimit="10" stroke-linecap="round" stroke-linejoin="round"/><path d="M29.83 144.487l27.027-.511 102.339 16.764-1.424 1.972-100.915-17.275-24.763.511-2.264-1.461z" stroke="#000" stroke-width=".5" stroke-miterlimit="10" stroke-linecap="round" stroke-linejoin="round"/><path d="M57.625 144.121l.256-66.691v-2.557l.146-41.82.036-11.139m61.833 0l37.254 29.62v108.841M22.014 84.296a97.055 97.055 0 011.643 4.127c4.712 12.418 7.89 25.603 8.802 39.445a131.23 131.23 0 01.073 16.545M55.98 21.914v122.098m75.53 9.752a2.52 2.52 0 100-5.04 2.52 2.52 0 000 5.04zm19.76 2.885a2.52 2.52 0 100-5.04 2.52 2.52 0 000 5.04zm-45.473-23.631a2.52 2.52 0 100-5.041 2.52 2.52 0 000 5.041zm17.497 2.046a2.521 2.521 0 10-.002-5.042 2.521 2.521 0 00.002 5.042zm-40.871-21.439a2.265 2.265 0 100-4.53 2.265 2.265 0 000 4.53zm15.414 1.314a2.264 2.264 0 100-4.529 2.264 2.264 0 000 4.529zm-29.73-18.225a2.118 2.118 0 100-4.236 2.118 2.118 0 000 4.236zm8.838.548a2.118 2.118 0 100-4.237 2.118 2.118 0 000 4.237zm-34.223-32.36a1.863 1.863 0 100-3.725 1.863 1.863 0 000 3.725zm7.926 0a1.863 1.863 0 100-3.725 1.863 1.863 0 000 3.725z" stroke="#000" stroke-width=".5" stroke-miterlimit="10" stroke-linecap="round" stroke-linejoin="round"/><path d="M130.781 148.87v-1.973l3.799.658v2.082m16.69 2.008v-1.534l3.469.512v2.081m-49.889-24.507v-1.789l3.761.438v1.863m14.28 1.387v-1.607l4.017.402v1.899m-45.215-21.585v-1.534l3.434.292v1.899m12.709.512v-1.278l3.506.255v1.9m-33.93-18.737v-1.096l3.324.146v1.644m5.332.036V91.71l3.214.147v1.753M42.065 61.286v-.913h3.104l.073 1.9m4.236-.694v-1.242h2.886v1.936" stroke="#000" stroke-width=".5" stroke-miterlimit="10" stroke-linecap="round" stroke-linejoin="round"/></svg>