<svg width="188" height="187" fill="none" xmlns="http://www.w3.org/2000/svg"><path d="M93.9 163.625c38.729 0 70.125-31.396 70.125-70.125S132.629 23.375 93.9 23.375 23.775 54.771 23.775 93.5s31.396 70.125 70.125 70.125z" fill="#788CA4"/><path d="M177.058 130.04l-22.23-23.69H32.974l-22.23 23.69v2.974h2.306l-2.306 2.478v2.974h2.306l-2.306 2.478v2.973h166.314v-2.973l-2.346-2.478h2.346v-2.974l-2.346-2.478h2.346v-2.974zm-10.83-52.934L146.905 66.51H40.943L21.574 77.106v2.62h3.72l-3.72 2.13v2.567h3.72l-3.72 2.184v2.567h144.654v-2.567l-3.674-2.184h3.674v-2.567l-3.674-2.13h3.674v-2.62zm-26.752-34.023H48.328l-16.635 2.692h124.418l-16.635-2.692zM31.693 45.775h124.418v7.047H31.693v-7.047z" fill="#fff"/><path d="M177.058 130.04H10.744v2.974h166.314v-2.974zM32.974 106.35h121.854l22.23 23.69H10.744l22.23-23.69zm144.084 34.593H10.744v2.974h166.314v-2.974zM13.05 138.465l-2.306 2.478h166.314l-2.346-2.478m2.346-2.973H10.744v2.973h166.314v-2.973z" stroke="#000" stroke-width=".5" stroke-miterlimit="10" stroke-linecap="round" stroke-linejoin="round"/><path d="M13.05 133.014l-2.306 2.478h166.314l-2.346-2.478m-8.484-55.908H21.574v2.567h144.654v-2.567zM40.943 66.511h105.962l19.323 10.595H21.574l19.37-10.595zm125.285 20.096H21.574v2.567h144.654v-2.567z" stroke="#000" stroke-width=".5" stroke-miterlimit="10" stroke-linecap="round" stroke-linejoin="round"/><path d="M25.294 84.423l-3.72 2.185h144.654l-3.674-2.185m3.674-2.567H21.574v2.567h144.654v-2.567z" stroke="#000" stroke-width=".5" stroke-miterlimit="10" stroke-linecap="round" stroke-linejoin="round"/><path d="M25.294 79.727l-3.72 2.13h144.654l-3.674-2.13m-6.443-33.952H31.693v2.349h124.418v-2.35z" stroke="#000" stroke-width=".5" stroke-miterlimit="10" stroke-linecap="round" stroke-linejoin="round"/><path d="M48.328 43.083h91.148l16.635 2.692H31.693l16.635-2.692zm107.783 7.39H31.693v2.349h124.418v-2.35z" stroke="#000" stroke-width=".5" stroke-miterlimit="10" stroke-linecap="round" stroke-linejoin="round"/><path d="M156.111 48.124H31.693v2.349h124.418v-2.349z" stroke="#000" stroke-width=".5" stroke-miterlimit="10" stroke-linecap="round" stroke-linejoin="round"/></svg>