<svg width="187" height="187" fill="none" xmlns="http://www.w3.org/2000/svg"><path d="M93.5 163.625c38.729 0 70.125-31.396 70.125-70.125S132.229 23.375 93.5 23.375 23.375 54.771 23.375 93.5s31.396 70.125 70.125 70.125z" fill="#788CA4"/><path d="M162.895 27.356h-1.827V159.68h1.827V27.356zm-1.827 0v132.288l-22.169-3.506-42.879-6.611-1.826-.292-31.702-4.858-36.049-5.515-.511-89.482 135.136-22.024z" fill="#fff" stroke="#000" stroke-width=".5" stroke-miterlimit="10" stroke-linecap="round" stroke-linejoin="round"/><path d="M162.895 27.356h-1.827V159.68h1.827V27.356zm-1.827 0v132.288l-22.169-3.506-42.879-6.611-1.826-.292-31.702-4.858-36.049-5.515-.511-89.482 135.136-22.024z" stroke="#000" stroke-width=".5" stroke-miterlimit="10" stroke-linecap="round" stroke-linejoin="round"/><path d="M143.646 30.168l2.484 2.484 5.844 5.88 5.844 5.844 3.25 3.214m0 23.411l-3.251-3.25-5.844-5.844-5.844-5.844-5.843-5.844-5.844-5.843-5.844-5.844-5.077-5.077m-20.087 3.287l1.753 1.79 5.843 5.844 5.881 5.843 5.843 5.844 5.844 5.844 5.844 5.844 5.844 5.843 5.843 5.844 5.844 5.88 5.844 5.844 3.251 3.214m.001 23.412l-3.251-3.251-5.843-5.844-5.844-5.843-5.844-5.844-5.844-5.844-5.843-5.844-5.844-5.88-5.844-5.844-5.88-5.843-5.844-5.844-5.844-5.844-5.843-5.844-5.844-5.843-4.346-4.347m77.757 101.134l-3.25-3.214-5.844-5.844-5.844-5.88-5.843-5.844-5.844-5.844-5.844-5.844-5.844-5.843-5.843-5.844-5.881-5.844-5.843-5.844-5.844-5.88-5.844-5.844-5.844-5.843-5.844-5.844-5.843-5.844-5.844-5.844-5.88-5.843-1.06-1.06m-20.087 3.251l3.616 3.653 5.843 5.843 5.844 5.844 5.844 5.844 5.88 5.844 5.844 5.844 5.844 5.88 5.843 5.843 5.844 5.844 5.844 5.844 5.844 5.844 5.843 5.844 5.881 5.843 5.843 5.844 5.844 5.88 5.844 5.844 5.844 5.844 5.843 5.844 5.844 5.843 3.251 3.251m-27.721-4.347l-4.748-4.748-5.844-5.844-5.88-5.843-5.844-5.844-5.844-5.88-5.843-5.844-5.844-5.844-5.844-5.844-5.844-5.843-5.843-5.844-5.88-5.844-5.844-5.844-5.844-5.88-5.844-5.844-5.844-5.843-5.843-5.844-5.844-5.844-3.214-3.214m73.887 97.262l-.512-.475-5.844-5.844-5.843-5.843-5.844-5.844-5.844-5.88-5.844-5.844-5.88-5.844-5.844-5.844-5.843-5.843-5.844-5.844-5.844-5.844-5.844-5.844-5.843-5.88-3.105-3.068m46.093 69.505l-2.045-2.082-5.88-5.844-5.844-5.844-5.844-5.88-5.844-5.844-5.843-5.843-5.844-5.844-5.844-5.844-2.958-2.958m.109 23.521l2.849 2.812 5.844 5.88 5.843 5.844 3.69 3.689" stroke="#000" stroke-width=".5" stroke-miterlimit="10" stroke-linecap="round" stroke-linejoin="round"/><path d="M26.041 70.855l3.141-3.104 5.844-5.844 5.843-5.844 5.844-5.844 5.04-5.04m27.941-4.565l-3.725 3.762-5.844 5.843-5.88 5.844-5.844 5.844-5.844 5.844-5.843 5.843-5.844 5.844-5.844 5.88-5.844 5.844-2.994 2.959m81.484-58.073l-2.484 2.484-5.844 5.844-5.843 5.843-5.844 5.844-5.844 5.844-5.844 5.844-5.843 5.843-5.88 5.844-5.844 5.88-5.844 5.844-5.844 5.844-5.844 5.844-5.843 5.843-5.844 5.844-2.849 2.849m109.278-85.903l-1.169 1.169-5.844 5.88-5.844 5.844-5.843 5.843-5.881 5.844-5.843 5.844-5.844 5.844-5.844 5.843-5.844 5.844-5.843 5.88-5.844 5.844-5.844 5.844-5.88 5.844-5.844 5.843-5.844 5.844-5.843 5.844-5.844 5.844-5.844 5.88-5.844 5.844-1.168 1.168m20.269 3.068l4.273-4.236 5.844-5.844 5.844-5.88 5.88-5.844 5.844-5.844 5.844-5.844 5.844-5.843 5.843-5.844 5.844-5.844 5.844-5.844 5.843-5.88 5.881-5.844 5.843-5.843 5.844-5.844 5.844-5.844 5.844-5.844 5.844-5.843 5.843-5.844 5.881-5.88 3.214-3.215M68.592 145.29l1.534-1.498 5.843-5.843 5.844-5.844 5.844-5.88 5.844-5.844 5.843-5.844 5.844-5.844 5.844-5.843 5.88-5.844 5.844-5.844 5.844-5.844 5.844-5.88 5.843-5.844 5.844-5.843 5.844-5.844 5.844-5.844 3.25-3.25m-72.208 95.618l4.639-4.639 5.844-5.843 5.843-5.844 5.844-5.88 5.88-5.844 5.844-5.844 5.844-5.844 5.844-5.843 5.843-5.844 5.844-5.844 5.844-5.844 5.844-5.88 3.25-3.214m.001 23.376l-3.25 3.25-5.844 5.843-5.844 5.844-5.844 5.844-5.843 5.844-5.844 5.88-5.844 5.844-5.844 5.843-5.88 5.844-1.899 1.899m20.269 3.142l5.041-5.041 5.843-5.843 5.844-5.844 5.844-5.844 5.844-5.88 3.25-3.214m.001 23.375l-3.251 3.25-5.844 5.844-2.337 2.374" stroke="#000" stroke-width=".5" stroke-miterlimit="10" stroke-linecap="round" stroke-linejoin="round"/><path d="M69.796 112.163a.701.701 0 00-.146-.438l.146.438zm-24.544-.438a.701.701 0 00-.147.438l.147-.438z" fill="#000"/><path d="M82.324 110.775v21.768m-9.714-24.397a.615.615 0 00-.11.365c0 1.242 4.42 2.264 9.825 2.264 5.442 0 9.825-1.022 9.825-2.264a.7.7 0 00-.11-.365m-9.717-11.797c2.925 0 5.296-.556 5.296-1.242 0-.686-2.37-1.242-5.296-1.242-2.925 0-5.296.556-5.296 1.242 0 .686 2.371 1.242 5.296 1.242zm.001 37.071c2.078 0 3.762-.392 3.762-.876 0-.485-1.684-.877-3.762-.877-2.077 0-3.761.392-3.761.877 0 .484 1.684.876 3.761.876zm3.762 1.753c0 .475-1.68.876-3.762.876-2.081 0-3.761-.401-3.761-.876m-4.567 4.054c0 1.059 3.726 1.936 8.327 1.936 4.602 0 8.328-.877 8.328-1.936m-13.622-44.12L72.5 108.51m15.12-13.403l4.528 13.404" stroke="#000" stroke-width=".5" stroke-miterlimit="10" stroke-linecap="round" stroke-linejoin="round"/><path d="M78.561 132.543v2.63s-4.565.913-4.565 4.091m12.09-6.721v2.63s4.565.913 4.565 4.091" stroke="#000" stroke-width=".5" stroke-miterlimit="10" stroke-linecap="round" stroke-linejoin="round"/><path d="M69.797 112.163c0 1.571-5.515 2.849-12.345 2.849-6.83 0-12.345-1.278-12.345-2.849l.147-.438 5.551-16.362c0-.84 2.959-1.534 6.647-1.534 3.653 0 6.648.694 6.648 1.534l5.551 16.362.146.438zm-1.9 38.569c0 1.351-4.675 2.41-10.445 2.41-5.771 0-10.446-1.095-10.446-2.41 0-3.981 5.734-5.113 5.734-5.113v-3.287c0-.621 2.118-1.096 4.748-1.096 2.63 0 4.748.511 4.748 1.096v3.287c-.073 0 5.661 1.168 5.661 5.113z" fill="#fff"/><path d="M57.379 115.012v27.283m-12.163-30.607a.706.706 0 00-.146.439c0 1.57 5.515 2.849 12.345 2.849 6.83 0 12.345-1.279 12.345-2.849a.706.706 0 00-.146-.439M57.378 96.86c3.67 0 6.647-.687 6.647-1.534s-2.976-1.534-6.647-1.534c-3.671 0-6.648.687-6.648 1.534s2.977 1.534 6.648 1.534zm.001 46.531c2.622 0 4.748-.491 4.748-1.096 0-.605-2.126-1.096-4.748-1.096-2.622 0-4.748.491-4.748 1.096 0 .605 2.126 1.096 4.748 1.096zm4.748 2.191c0 .621-2.118 1.096-4.748 1.096-2.63 0-4.748-.512-4.748-1.096m-5.697 5.113c0 1.352 4.675 2.411 10.445 2.411 5.771 0 10.446-1.096 10.446-2.411M50.768 95.326l-5.698 16.837m18.955-16.837l5.698 16.837" stroke="#000" stroke-width=".5" stroke-miterlimit="10" stroke-linecap="round" stroke-linejoin="round"/><path d="M52.668 142.295v3.287s-5.734 1.169-5.734 5.113m15.193-8.4v3.287s5.734 1.169 5.734 5.113" stroke="#000" stroke-width=".5" stroke-miterlimit="10" stroke-linecap="round" stroke-linejoin="round"/></svg>